<svg xmlns="http://www.w3.org/2000/svg" viewBox="0 0 96 64" width="96" height="64">
  <!-- FURIOUS RHINO — skin "fumaca" (run), gerada pelo gerador-de-sprites (folha raster vetorizada) — frame 0. Rig: pés em y=64, focinho à direita
       (narina ~(89,38)), hitbox 76x54 offset (8,10) inalterada. Corpo
       idêntico nos 3 frames (regra da casa); só as pernas mudam. -->
  <g transform="translate(0.79 1.00) scale(0.19505)">
    <path d="M 0.2 191.2 C 0.5 201.4, 0.5 201.4, 3.2 201.9 C 6.0 202.5, 6.0 202.5, 6.0 261.6 C 5.9 298.9, 6.3 321.0, 6.9 321.4 C 7.4 321.7, 21.0 322.0, 37.2 322.0 L 66.5 322.0 66.7 262.0 L 67.0 202 237.0 202 L 407 202 407 191.5 L 407 181 203.4 181 L -0.0 181 0.2 191.2" fill="#333333" fill-rule="evenodd"/>
    <path d="M 0.1 190.6 C 0.0 196.2, 0.3 201.0, 0.7 201.3 C 1.1 201.6, 1.3 198.1, 1.2 193.6 C 0.7 180.8, 0.3 179.5, 0.1 190.6 M 119.8 181.7 C 172.8 181.8, 259.2 181.8, 311.8 181.7 C 364.4 181.6, 321.1 181.4, 215.5 181.4 C 109.9 181.4, 66.8 181.6, 119.8 181.7 M 6.2 263.1 C 6.0 316.9, 6.1 320.8, 7.7 322.1 C 9.2 323.3, 9.3 323.3, 8.2 321.9 C 7.3 320.6, 6.9 306.7, 6.7 262.9 L 6.4 205.5 6.2 263.1" fill="#7788aa" fill-rule="evenodd"/>
    <path d="M 1.0 190.0 C 1.0 200.2, 1.4 201.5, 4.5 202.1 C 6.4 202.5, 6.5 203.4, 6.7 261.4 C 6.9 293.9, 7.3 320.7, 7.8 321.2 C 8.2 321.6, 21.5 321.9, 37.5 322.0 L 66.5 322.1 66.7 262.0 L 67.0 202 237.0 202 L 407 202 407 192 L 407 182 221.2 181.9 C 119.0 181.9, 27.7 181.6, 18.2 181.3 L 1 180.6 1.0 190.0" fill="#333333" fill-rule="evenodd"/>
  </g>
  <g transform="translate(0.79 1.00) scale(0.19505)">
    <path d="M 0.9 1.6 C 0.3 2.2, 0.0 42.6, 0.2 102.1 L 0.5 201.5 13.5 202 C 26.5 202.5, 26.5 202.5, 26.1 205.2 C 25.8 208, 25.8 208, 56.3 208 C 86.8 208, 86.8 208, 87.1 205.2 C 87.5 202.5, 87.5 202.5, 234.2 202.2 L 381 201.9 381 204.9 C 381 208, 381 208, 394 208 L 407 208 407 264.9 L 407 321.9 424.0 322.2 C 433.4 322.3, 441.3 322.3, 441.5 322.0 C 441.8 321.8, 442 294.7, 442 261.8 L 442 202 462 202 L 482 202 482.2 102.2 L 482.4 2.5 483 101.5 L 483.5 200.5 483.7 100.7 C 483.8 45.8, 483.6 1.0, 483.2 1.1 C 482.8 1.1, 482.2 1.1, 482 1.1 C 478.3 0.2, 1.6 0.7, 0.9 1.6 M 0.4 101.5 C 0.4 156.5, 0.6 179.1, 0.7 151.8 C 0.8 124.5, 0.8 79.5, 0.7 51.8 C 0.6 24.1, 0.4 46.5, 0.4 101.5" fill="#333333" fill-rule="evenodd"/>
    <path d="M 1.2 1.2 C -0.1 2.5, -0.6 200.5, 0.7 201.3 C 1.1 201.6, 1.3 157.0, 1.2 102.2 C 1.0 29.0, 1.2 2.3, 2.1 1.3 C 3.5 -0.3, 2.8 -0.4, 1.2 1.2 M 123.8 1.7 C 188.9 1.8, 295.1 1.8, 359.8 1.7 C 424.5 1.6, 371.3 1.4, 241.5 1.4 C 111.7 1.4, 58.7 1.6, 123.8 1.7 M 21.4 22.2 C 21.1 22.9, 21.0 59.0, 21.2 102.5 L 21.5 181.5 241.5 181.5 L 461.5 181.5 461.5 101.5 L 461.5 21.5 241.7 21.2 C 66.4 21.0, 21.8 21.2, 21.4 22.2" fill="#7788aa" fill-rule="evenodd"/>
    <path d="M 1.4 1.9 C 0.6 2.6, 1.0 199.4, 1.8 200.7 C 2.3 201.5, 6.5 202.0, 14.5 202.2 C 24.3 202.4, 26.5 202.7, 26.5 204 C 26.6 204.8, 26.7 206.0, 26.8 206.7 C 26.9 207.7, 33.7 208, 56.9 208 C 86.8 208, 86.8 208, 87.1 205.2 C 87.6 200.8, 381.3 200.8, 381.8 205.2 C 382.1 208, 382.1 208, 394.5 208 L 407 208 407 264.9 L 407 321.9 424.0 322.2 C 433.4 322.3, 441.3 322.3, 441.5 322.0 C 441.8 321.8, 442 294.7, 442 261.8 L 442 202 462.0 202 L 482.0 202 481.7 101.9 L 481.5 1.9 241.6 1.7 C 109.7 1.6, 1.6 1.6, 1.4 1.9 M 21.4 22.2 C 21.1 22.9, 21.0 59.0, 21.2 102.5 L 21.5 181.5 241.5 181.5 L 461.5 181.5 461.5 101.5 L 461.5 21.5 241.7 21.2 C 66.4 21.0, 21.8 21.2, 21.4 22.2" fill="#333333" fill-rule="evenodd"/>
  </g>
</svg>
