<svg xmlns="http://www.w3.org/2000/svg" viewBox="0 0 96 64" width="96" height="64">
  <!-- FURIOUS RHINO — skin "rhinohd" (run), gerada pelo gerador-de-sprites (folha raster vetorizada) — frame 2. Rig: pés em y=64, focinho à direita
       (narina ~(89,38)), hitbox 76x54 offset (8,10) inalterada. Corpo
       idêntico nos 3 frames (regra da casa); só as pernas mudam. -->
  <g transform="translate(2.02 9.57) scale(0.14438)">
    <path d="M 358 1.1 C 347 3.3, 342.4 4.3, 341.5 4.9 C 340.9 5.3, 338.4 6.2, 336 7.0 C 330.9 8.5, 320.1 14.1, 310.2 20.1 C 303.6 24.2, 278.3 36.6, 272 38.9 C 270.0 39.6, 267.1 40.8, 265.4 41.5 C 263.8 42.2, 259.0 44.0, 254.9 45.4 C 250.8 46.9, 246.6 48.5, 245.5 48.9 C 244.4 49.4, 241.0 50.3, 238 51.0 C 234.9 51.7, 231.1 52.6, 229.6 53.1 C 228.0 53.6, 213.3 54, 197.1 54.0 C 151.5 54.0, 140.1 57.6, 118.5 79.1 C 113.6 84, 109.1 88, 108.5 88 C 106.4 88, 97.2 95.2, 88 104.3 C 70.7 121.1, 65.6 124.3, 55.4 124.4 C 49.3 124.4, 47.7 124.1, 44.1 121.7 C 37.0 117.0, 33.0 106.1, 37.0 102.4 C 48.4 92.1, 45.4 69.5, 31.8 62.4 C 24.2 58.4, 12.6 56.6, 8.2 58.8 C 1.6 62.0, 0.5 63.0, 0.5 65.1 C 0.5 66.6, 1.4 67.9, 3.5 68.9 C 11.0 72.8, 13 76.3, 13 86.1 C 13 95.4, 14.3 99.9, 17.6 101.8 C 18.9 102.5, 19.2 104.0, 19.1 108.8 C 18.5 124.5, 28.8 140.5, 42 144.4 C 51.8 147.2, 57.5 147.7, 65.3 146.4 C 75.7 144.6, 76.4 144.3, 83.8 139.8 L 90.2 135.9 89.5 140.7 C 89.1 143.3, 88.4 146.8, 88.0 148.5 C 85.0 158.6, 84.1 171.7, 85.8 177.6 C 86.3 179.1, 87.3 182.5, 88.0 185 C 94.2 205.9, 111.4 220.9, 149.2 238.4 C 152.8 240.1, 154.0 242.2, 152.0 243.4 C 151.6 243.7, 148.5 248.3, 145.4 253.6 C 142.2 259.0, 137.8 265.6, 135.5 268.4 C 124.5 282.1, 126.8 291.4, 143.9 301.9 C 166.9 316.0, 174.3 324.8, 175.2 339.4 C 175.8 347.9, 176.6 348.3, 191.4 347.5 C 198.0 347.2, 203.8 346.5, 204.4 345.9 C 204.9 345.4, 206.5 345, 208 345 C 209.4 345, 211.0 344.5, 211.5 344.0 C 214.3 341.2, 215.5 344.8, 215.2 355.4 C 214.9 367.6, 215.1 367.9, 225.5 369.9 C 228.8 370.5, 233.7 371.5, 236.5 372.1 C 244.5 373.8, 269.8 371.8, 277.7 368.9 C 287.8 365.2, 276.7 342.5, 261 334.4 C 256.4 332.1, 251.3 327.3, 247.0 321 C 245.6 319.0, 244.3 317.2, 244.0 317 C 243.7 316.7, 241.8 314.4, 240 312 C 238.1 309.5, 236.3 307.2, 236 307 C 235.6 306.7, 233.9 304.5, 232.0 302.1 L 228.7 297.8 236.6 289.6 C 240.9 285.1, 245.6 279.9, 247.0 278.1 C 248.3 276.2, 250.1 274.0, 251 273.1 C 251.8 272.1, 254.0 268.1, 255.9 264.2 C 258.5 258.9, 259.8 257.1, 260.9 257.5 C 262.8 258.2, 268.9 259.5, 279.5 261.4 C 294.4 264.0, 302.0 265, 307.8 265 C 313.7 265, 315.1 266.5, 319.8 278.0 C 320.2 279.0, 306.5 281.4, 304.8 280.6 C 304.1 280.3, 301.2 278.6, 298.5 277.0 C 283.7 268.1, 282.0 268.2, 275.2 278.2 C 264.5 293.9, 261.8 301.9, 261.6 319.2 C 261.5 331.3, 261.5 331.3, 264.7 333.2 C 271.5 337.3, 288.5 335.5, 297.8 329.8 C 301.9 327.2, 301.7 326.8, 302.8 338.4 C 304.0 351.7, 305.7 353.5, 316.7 353.4 C 322.8 353.3, 325.3 352.8, 328.5 351.0 C 333.0 348.4, 342.7 341.3, 345.0 338.8 C 346.7 337.0, 353.5 333, 355.0 333 C 355.5 333, 358.8 331.6, 362.5 330 C 366.1 328.3, 369.3 327, 369.8 327 C 370.2 327, 375.6 324.5, 381.8 321.4 C 399.7 312.7, 405.7 305.3, 410.0 286.5 C 413.5 270.7, 420.4 244.6, 421.4 243.1 C 421.8 242.4, 425.2 239.9, 429.0 237.4 C 438.5 231.2, 446.3 224.8, 453.5 217.3 L 459.5 211.0 466 214.2 C 469.5 216.0, 474.3 218.1, 476.5 218.8 C 478.7 219.6, 486.1 222.6, 493 225.4 C 499.8 228.3, 509.3 232.1, 514 233.9 C 518.6 235.7, 527.6 239.2, 534 241.8 C 545.9 246.6, 558.3 248.0, 568.6 245.8 C 571.4 245.1, 571.9 245.4, 574.1 248.8 C 577.1 253.4, 580.4 254.0, 585.6 250.6 C 593.5 245.7, 604 232.2, 604 227.1 C 604 226.1, 604.4 224.9, 604.9 224.4 C 605.4 223.9, 606.0 219.6, 606.3 215 C 607.1 201.4, 608.7 195.6, 612.9 192 C 618.3 187.4, 632.2 162.2, 635.0 152 C 635.7 149.5, 636.6 147.0, 637.0 146.5 C 637.3 145.9, 638.2 142.5, 638.9 139 C 639.5 135.4, 640.5 130.7, 641.0 128.5 C 642.6 122.0, 643.6 102.0, 642.8 95 C 640.0 72.0, 634.8 68.2, 628.4 84.5 C 617.9 111.2, 602.7 132.2, 583.1 147.3 C 581.7 148.5, 579.9 150.0, 579.1 150.7 C 576.2 153.5, 574.5 151.6, 576.5 147.4 C 581.1 137.3, 584.3 119.0, 582.7 111.0 C 580.7 100.6, 578.2 99.6, 571.8 106.6 C 566.6 112.1, 559.0 117.9, 553.1 120.8 C 547.6 123.4, 541.8 120.9, 533.5 112.6 C 528.5 107.6, 527.9 106.6, 524.4 98.5 C 523.5 96.3, 522.1 93.1, 521.3 91.5 C 520.6 89.9, 520 88.2, 520 87.7 C 520 87.2, 519.1 85.6, 518.1 84.1 C 514.6 79.1, 514.8 78.5, 521.3 71.8 C 530.9 62.0, 532.2 58.9, 531.8 47.2 C 531.5 38.9, 531.0 36.6, 528.6 31.7 C 523.0 20.4, 521.0 21.0, 510.5 37.1 C 495.9 59.4, 492.2 63.6, 493.5 56.4 C 495.3 47.2, 487.9 24.7, 480.8 17.6 C 475.8 12.7, 474.3 12.5, 470.2 16.6 C 466.0 20.8, 458 32.2, 458 33.9 C 458 34.5, 457.5 35.8, 457.0 36.7 C 456.5 37.7, 455.8 39.7, 455.5 41.3 C 454.9 44.1, 454.8 44.0, 444.2 34.2 C 433.2 24.1, 425.6 18.5, 416 13.3 C 412.9 11.6, 409.6 9.8, 408.5 9.2 C 395.1 1.9, 372.2 -1.7, 358 1.1" fill="#050302" fill-rule="evenodd"/>
    <path d="M 357 16.4 C 348.4 18.2, 336.2 22.3, 327.1 26.5 C 323.1 28.4, 319.6 30, 319.2 30 C 318.9 30, 317.9 30.5, 317.0 31.3 C 314.9 33.0, 291.3 44.1, 281.5 48.0 C 277.1 49.7, 270.7 52.4, 267.3 54.0 C 253.4 60.4, 243.1 63.3, 225.5 66.0 C 222.2 66.5, 211.1 66.7, 201 66.3 C 180.2 65.7, 168.1 67.2, 155.5 72.0 C 154.4 72.4, 150.8 73.8, 147.5 75.0 C 136.9 79.0, 128.6 83.9, 122.9 89.5 C 119.9 92.5, 116.5 95, 115.4 95 C 113.7 95, 113.2 96.1, 112.1 102.7 C 110.7 110.8, 109.7 115.8, 108.1 122.5 C 100.4 154.9, 101.9 165.4, 116.4 184 C 129.5 200.7, 140.2 209.8, 156.1 217.8 C 164.2 221.9, 175 234.0, 175 239.1 C 175 242.9, 169.1 253.4, 162.2 261.8 C 149.1 277.9, 148.0 279.5, 148.0 282.0 C 147.9 285.2, 153.1 290.3, 165.8 299.8 C 175.1 306.8, 185.2 317.2, 189.3 324.2 C 191.5 327.9, 194 329.8, 194 327.8 C 194 325.9, 198.7 320.2, 200.8 319.7 C 201.9 319.4, 204.5 320.0, 206.7 321.0 C 211.6 323.2, 212.5 322.6, 213.2 317 C 213.9 312.0, 214.0 312.1, 197 304.7 C 190.3 301.8, 176.3 290.9, 174.7 287.3 C 173.8 285.3, 173.1 284.9, 171.0 285.4 C 163.3 287.2, 163.4 285.4, 171.2 281 C 191.5 269.5, 207.4 250.3, 214.4 229 C 215.4 225.9, 216.8 221.8, 217.6 219.7 C 219.2 215.3, 219.3 207.9, 218.0 203 C 217.5 201.0, 216.8 198.3, 216.5 197 C 214.6 188.2, 213.9 185.6, 211.1 178.1 C 206.8 166.6, 198.9 151.9, 192.0 143 C 182.8 130.9, 182.4 130.2, 184.2 128.2 C 185.6 126.6, 185.4 125.9, 182.0 120.5 C 169.1 100.0, 169.3 96.4, 182.6 110.2 C 191.7 119.7, 197.2 127.8, 206.3 145.2 C 209.8 151.9, 213.9 159.6, 215.5 162.3 C 219.5 169.4, 224.5 182.8, 227.0 193.1 C 229.9 204.8, 232.6 208.1, 241.6 210.9 C 258.1 216.0, 274 209.1, 274 196.7 C 274 189.5, 277.6 179.1, 287.2 159 C 289.9 153.2, 293.9 142.8, 296.1 136 C 302.6 115.4, 303.7 113.6, 308.6 115.8 C 311.2 117.0, 311.2 117.1, 310.5 125.1 C 310.1 129.9, 309.0 134.7, 307.9 136.8 C 306.9 138.7, 306.3 140.6, 306.5 141.1 C 306.8 141.5, 306.3 143.0, 305.5 144.3 C 304.6 145.5, 304.2 146.9, 304.5 147.2 C 304.8 147.5, 304.4 149.1, 303.6 150.7 C 297.5 162.5, 294.4 190.6, 298.6 195.8 C 300.5 198.1, 300.5 198.1, 306.6 196.1 C 318.1 192.2, 335.8 190.1, 336.6 192.6 C 336.9 193.2, 335.3 194.0, 333.1 194.3 C 331.0 194.7, 328.7 195.6, 328.0 196.4 C 327.3 197.2, 324.7 198.8, 322.1 200 C 307.9 206.4, 306.4 207.7, 305.8 214 C 305.3 218.7, 307.8 219.0, 315.3 215 C 329.8 207.2, 353.4 207.3, 369.8 215.2 C 377.7 219.0, 379.3 218.4, 379.8 211.5 C 379.9 208.8, 379.6 206.2, 379.0 205.6 C 375.0 201.6, 380.4 201.3, 384.8 205.3 C 387.5 207.8, 388.2 207.3, 392.4 199 C 396.3 191.3, 397.3 187.1, 395.8 185.3 C 394.7 184.0, 394.8 183.5, 396.4 182.3 C 400.3 179.5, 398.5 143.3, 394.0 133.5 C 392.7 130.6, 390 123.8, 390 123.3 C 390 121.5, 392.7 123.6, 393.8 126.2 C 394.5 128.0, 395.5 130.3, 396.0 131.2 C 398.1 135.1, 401.7 158.8, 402.4 173.5 C 403.3 192.3, 404.6 200.9, 406.7 203.8 C 409.2 207.1, 411.1 207.2, 412.6 203.9 C 413.9 201.3, 413.7 199.6, 410.6 181 C 409.8 176.3, 408.8 168.2, 408.5 163 C 407.2 145.3, 404.1 126.1, 401.0 116.9 C 399.3 111.9, 398 107.4, 398 106.8 C 398 106.3, 396.8 103.4, 395.5 100.4 C 394.1 97.4, 393 94.6, 393 94.2 C 393 93.7, 391.8 91.8, 390.5 89.7 C 387.5 85.4, 387.2 82.7, 389.6 83.1 C 391.5 83.5, 404.1 99.8, 408.2 107 C 409.5 109.4, 411.5 113.0, 412.6 115 C 415.2 119.7, 418 131.5, 418 138.3 C 418 149.9, 424.5 175.5, 428.6 180.1 C 432.5 184.4, 433.3 182.7, 432.6 171.6 C 431.7 158.1, 434.4 146.3, 441.3 133.5 C 441.8 132.4, 443.0 130.2, 443.7 128.6 C 444.6 127, 445.8 126.0, 446.8 126.2 C 448.3 126.4, 448.4 128.2, 448.1 142.5 C 447.4 176.7, 460.2 196.7, 488 204.9 C 498.6 208.1, 516.6 216.9, 522.5 221.9 C 528.9 227.3, 537.3 231.6, 545.2 233.4 C 552.1 235.1, 562 235.4, 562 234.1 C 562 233.0, 546.3 225.3, 542.3 224.4 C 534.2 222.6, 531.2 220, 537.4 220 C 551.2 220, 569.4 229.8, 578.4 242.2 C 581.2 246.0, 582.2 246.1, 586.4 243.3 C 592.5 239.2, 600.2 226, 596.6 226 C 594.4 226, 593.7 216.9, 595.7 214.7 C 596.6 213.7, 596.9 213, 596.4 213 C 595.9 213, 596.1 212.4, 596.7 211.8 C 597.6 210.9, 598.3 211.0, 599.7 212.0 C 601.2 213.2, 601.2 213.1, 599.5 211.2 C 597.3 208.5, 596.1 208.4, 594.3 210.7 C 593.1 212.3, 592.9 212.3, 592.4 210.2 C 590.3 203.0, 569.6 196.5, 561.8 200.5 C 556.2 203.4, 555.2 201.7, 560.4 198.1 C 562.3 196.8, 564.9 195.9, 566.1 196.0 C 574.1 196.6, 574.6 195.6, 569.0 189.2 C 564.9 184.7, 563.0 179.8, 563.0 174.6 C 562.9 170.5, 564.9 171.7, 568.1 177.9 C 570.8 183.2, 575.6 189, 577.1 189 C 578.6 189, 578.0 185.2, 576.4 183.9 C 574.4 182.2, 571.6 176.9, 572.4 176.2 C 572.7 175.9, 572.3 174.5, 571.4 173.2 C 570.5 171.9, 569.9 170.1, 570.0 169.2 C 570.5 164.6, 567.2 161, 562.9 161 C 551.1 161, 541.5 148.6, 542.9 135.3 C 543.8 127.0, 544.0 127.3, 538.7 126.5 C 524.6 124.4, 514.5 114.5, 504.0 92.5 C 498.6 81.2, 495.3 75.6, 493.5 74.4 C 490.4 72.4, 489.2 73.1, 490.6 76.2 C 493.9 83.6, 489.1 99, 483.4 99 C 481.3 99, 481.6 98.2, 484.8 94.4 C 487.7 91.2, 489.8 84.1, 488.5 82.0 C 487.5 80.4, 485.2 81.9, 483.9 85.1 C 482.8 87.8, 479.3 90.7, 478.3 89.7 C 478.1 89.4, 479.1 86.9, 480.5 84.0 C 488.0 69.2, 489.9 40.2, 483.7 35.9 C 483.3 35.6, 482.7 34.3, 482.5 33.0 C 481.7 29.3, 476.2 22, 474.1 22 C 473.0 22, 466.1 30.6, 464.0 34.8 C 460.2 42.1, 458.6 61.0, 461.1 68.9 C 463.7 77.3, 468.3 85.6, 472.2 89.1 C 476.3 92.8, 476.3 97.1, 472.3 95.5 C 471.5 95.2, 469.7 95.5, 468.2 96.0 C 465.6 97.0, 465.5 97.1, 467.5 98.2 C 468.6 98.7, 470.4 100.1, 471.6 101.2 C 473.0 102.4, 474.5 102.9, 475.8 102.5 C 476.9 102.2, 478.1 102.3, 478.4 102.9 C 479.1 104.0, 473.3 107, 470.3 107 C 468.0 107, 462 102.2, 462 100.4 C 462 99.5, 461.2 97.8, 460.3 96.4 C 459.0 94.4, 458.8 92.5, 459.3 87.5 C 460.0 81.5, 457.6 71.8, 454.8 68.5 C 453.7 67.2, 448.4 72.4, 446.9 76.3 C 446.2 78.0, 444.9 81.3, 443.8 83.7 C 442.2 87.5, 441.3 90.2, 439.1 99.5 C 438.7 101.1, 437.9 102.3, 437.4 102.2 C 435.8 101.8, 435.7 94.9, 437.4 92.4 C 438.2 91.1, 438.6 89.3, 438.3 88.4 C 437.9 87.5, 438.2 86.4, 438.9 86.0 C 439.6 85.5, 440.2 84.0, 440.2 82.5 C 440.2 81.0, 441.3 77.7, 442.6 75.1 C 443.9 72.6, 444.9 70.0, 444.9 69.4 C 444.9 68.8, 447.2 65.8, 450 62.7 C 455.2 56.9, 455.9 55.0, 453.5 53.0 C 449.5 49.7, 434.2 64.2, 429.4 75.8 C 424.3 88.5, 423.8 89.2, 422.6 88.0 C 421.5 86.9, 423.3 78.0, 424.9 77.0 C 425.4 76.7, 426.1 74.6, 426.5 72.4 C 428.2 63.6, 435.0 54.3, 443.6 49.3 C 446.0 47.9, 447.7 46.3, 447.4 45.8 C 447.0 45.2, 446.3 45.2, 445.6 45.8 C 444.3 46.8, 432.7 40.4, 422 32.8 C 403.3 19.5, 375.9 12.6, 357 16.4 M 472.6 28.6 C 472.3 29.0, 472 30.3, 472 31.6 C 472 32.9, 471.1 34.8, 470.1 35.8 C 467.8 38.1, 466.6 40.9, 466.9 43.3 C 467.0 44.3, 466.4 45.9, 465.5 46.9 C 464.2 48.3, 464.1 49.2, 465.0 51.2 C 465.8 52.9, 465.8 54.7, 465.1 57.4 C 464.3 60.4, 464.3 61.7, 465.5 63.3 C 466.3 64.5, 467 66.2, 467 67.1 C 467 72.2, 475.0 85.4, 476.8 83.4 C 481.0 78.7, 485.6 51.9, 483.1 47.1 C 482.6 46.2, 482.0 44.3, 481.8 43.0 C 480.9 36.9, 474.5 26.8, 472.6 28.6 M 519.6 34.1 C 518.7 35.4, 518 36.9, 518 37.6 C 518 38.2, 517.3 39.2, 516.5 39.9 C 515.7 40.5, 512.2 45.5, 508.6 50.9 C 505.0 56.4, 501.6 61.1, 501.0 61.4 C 499.2 62.5, 499.8 65.4, 502.1 67.0 C 503.3 67.8, 505.3 69.5, 506.5 70.7 C 509.4 73.7, 511.2 73.5, 515.5 69.8 C 525.1 61.3, 528.6 52.1, 525.9 41.9 C 523.6 32.9, 521.9 30.8, 519.6 34.1 M 214.5 101.9 C 210.5 109.5, 207.2 124.1, 208.5 128.1 C 209.6 131.7, 211.8 130.1, 212.5 125.2 C 213.5 117.8, 215.8 106.4, 217.0 103.4 C 218.6 99.2, 216.5 98.0, 214.5 101.9 M 366.7 100.6 C 366.4 100.9, 367.9 104.7, 370.1 109.0 C 378.7 126.2, 381.4 138.9, 381.2 161.2 C 381.0 175.6, 381.2 178.1, 382.6 178.6 C 392.3 182.4, 390.9 135.2, 380.8 117.1 C 374.2 105.3, 368.5 98.7, 366.7 100.6 M 90.5 110.8 C 85.5 115.6, 78.1 121.8, 74 124.5 C 67.1 129.0, 65.0 129.9, 56.7 131.6 C 52.4 132.5, 40.9 127.5, 35.3 122.4 C 30.1 117.5, 29 117.0, 29 119.9 C 29 123.1, 39.4 131.7, 45.4 133.5 C 59.3 137.5, 70.9 135.4, 82.5 126.7 C 92.9 118.7, 105.0 101.7, 100.0 102.0 C 99.7 102.0, 95.4 106.0, 90.5 110.8 M 230.8 110.7 C 224.8 125.1, 223.1 135.2, 223.7 152.2 C 224.1 162.2, 226.5 159.7, 227.3 148.5 C 227.9 139.2, 232.6 117.0, 235.5 109.7 C 239.8 98.7, 235.4 99.7, 230.8 110.7 M 256.1 114.7 C 247.7 131.3, 243.1 166.6, 249.2 167.8 C 250.6 168.0, 251.0 167.3, 251.0 163.8 C 251.0 154.7, 254.5 135.1, 258.3 122 C 261.5 110.9, 261.7 109.7, 260.2 109.2 C 259.6 109.0, 257.7 111.4, 256.1 114.7 M 576.6 115.0 C 576.3 117.9, 575.6 120.6, 575.1 120.9 C 574.6 121.2, 572.5 124.5, 570.5 128.2 C 566.4 135.7, 559.0 142.6, 554.1 143.6 C 550.1 144.4, 550.2 145.1, 554.5 148.7 C 562.4 155.3, 569.5 153.7, 571.6 145.1 C 571.9 143.6, 572.6 142.0, 573.0 141.5 C 574.8 139.1, 578.1 126.9, 578.6 120.4 C 579.4 111.6, 577.6 106.8, 576.6 115.0 M 421.6 117.7 C 420.1 127.8, 419.6 142, 420.7 142 C 422.2 142, 422.7 138.5, 423.5 124.7 C 424.2 112.8, 422.9 108.2, 421.6 117.7 M 634.5 115.7 C 634.2 116.0, 634 117.5, 634 119.1 C 634 120.6, 633.5 122.1, 633 122.5 C 632.4 122.8, 632 123.8, 632 124.8 C 632 135.1, 602.3 176.3, 593.3 178.6 C 588.7 179.7, 588.3 177.4, 592.3 172.3 C 596.4 167.0, 597.2 164.5, 593.6 167.8 C 590.9 170.3, 590 170.5, 590 168.5 C 590 167.7, 591.1 166.3, 592.5 165.4 C 593.8 164.5, 595 163.3, 595 162.7 C 595 161.7, 592.0 164.0, 583.6 171.6 L 578.7 176.0 582.3 181.4 C 585.9 186.6, 591.8 191.0, 598.8 193.9 C 602.5 195.4, 603.2 194.9, 611.6 184.7 C 619.0 175.8, 629.0 155.0, 632.8 140.7 C 633.9 136.7, 635.0 132.8, 635.4 132 C 635.7 131.1, 636.1 128.0, 636.3 125 C 636.5 121.9, 637.0 118.7, 637.4 117.8 C 638.1 116.2, 635.8 114.5, 634.5 115.7 M 281.2 122.2 C 280.3 123.3, 278.1 131.7, 271.3 159.8 C 270.2 164.3, 270.0 166.4, 270.8 167.2 C 271.6 168.0, 272.0 167.9, 272.4 166.9 C 276.4 155.3, 279.9 143.6, 280.4 140.5 C 280.8 138.3, 281.8 133.4, 282.7 129.6 C 284.3 122.8, 283.6 119.3, 281.2 122.2 M 166.5 127.8 C 166.2 128.3, 168.1 130.9, 170.6 133.6 C 187.5 151.8, 202.5 180.2, 207.1 202.8 C 208.0 207.6, 209.6 210.3, 211.1 209.4 C 214.2 207.4, 206.9 177.3, 200.2 164.5 C 189.7 144.5, 169.7 122.7, 166.5 127.8 M 517 138.1 C 517 138.6, 515.7 139.0, 514.2 138.9 C 510.6 138.6, 504.1 139.9, 503.3 141.2 C 501.9 143.5, 504.9 144.1, 507.8 142.1 C 510.9 139.9, 519 139.1, 519 141 C 519 141.5, 517.4 142, 515.5 142 C 513.5 142, 512 142.4, 512 143 C 512 143.5, 513.3 144, 514.9 144 C 516.7 144, 519.6 145.3, 522.4 147.4 C 525.0 149.4, 527.5 150.7, 528.4 150.3 C 529.3 150.0, 530 150.2, 530 150.8 C 530 153.4, 532.1 157.2, 533.0 156.3 C 534.2 155.1, 531.7 147.4, 529.2 144.5 C 525.9 140.6, 517 135.9, 517 138.1 M 509.9 147.5 C 509.2 148.4, 507.4 149.7, 506.0 150.4 C 503.2 151.9, 502.2 157.7, 504.7 157.2 C 505.4 157.1, 506.9 158.5, 508.2 160.4 C 511.0 164.7, 516.2 167.3, 520.2 166.4 C 522.5 165.9, 523.1 166.1, 522.7 167.1 C 522.5 167.8, 521.4 168.5, 520.4 168.5 C 519.3 168.5, 517.9 169.2, 517.1 170.2 C 516.4 171.2, 515.2 172, 514.3 172 C 512.0 172, 504.2 164.9, 502.4 161.2 C 500.6 157.4, 498.3 157.3, 498.8 161.0 C 499.7 167.7, 507.1 174, 514.0 174 C 517.9 174, 526.0 170.1, 526.6 168.0 C 526.9 167.1, 527.5 165.8, 527.9 164.9 C 528.4 164.0, 528.0 162.0, 526.9 159.9 C 525.9 158.0, 524.7 155.8, 524.3 155 C 522.7 151.8, 519.1 148.7, 517.6 149.2 C 516.8 149.6, 515.4 148.9, 514.4 147.9 C 512.3 145.5, 511.6 145.5, 509.9 147.5 M 495 174.8 C 495 177.5, 504.0 183.2, 510.2 184.4 C 514.4 185.1, 525.2 180.3, 527.0 176.8 C 528.1 174.8, 524.7 173.9, 523.5 175.9 C 523.2 176.4, 522.1 176.5, 521.1 176.3 C 520.0 176.0, 518.9 176.3, 518.5 176.9 C 517.3 178.7, 506.7 178.1, 502.2 176 C 497.9 173.9, 495 173.4, 495 174.8 M 584.1 197.7 C 585.0 202.2, 599.9 208.1, 601.3 204.4 C 602.0 202.7, 601.5 202.3, 596.2 201.5 C 593.9 201.1, 590.4 199.7, 588.4 198.4 C 584.2 195.5, 583.7 195.4, 584.1 197.7 M 562 204.3 C 558.1 205.4, 557.4 206.0, 557.1 208.3 C 556.7 212.0, 564.4 220, 568.4 220 C 571.4 220, 576.0 222.1, 577.9 224.4 C 583.7 231.4, 588.5 219.2, 583.2 210.7 C 578.8 203.4, 572.4 201.6, 562 204.3 M 336.8 227.3 C 327.7 230.0, 326 231.2, 326 235.0 C 326 239.7, 328.7 251.3, 332.9 264.2 C 338.4 281.1, 339.2 285.3, 338.0 289.8 C 336.6 295.0, 331.8 299.5, 329.2 298.1 C 325.0 295.8, 294.9 297.9, 292.2 300.6 C 290.7 302.1, 290.0 303.6, 290.4 304.9 C 290.8 306.2, 290.1 307.5, 288.0 309.3 C 284.0 312.6, 284.1 313.6, 289.6 319.7 C 294.2 324.9, 294.2 324.9, 298.3 322.7 C 303.9 319.9, 308.3 318.8, 315.5 318.4 C 318.8 318.2, 322.8 317.8, 324.5 317.5 C 326.1 317.1, 329.0 316.7, 331.0 316.5 C 332.9 316.3, 337.2 315.6, 340.4 315.0 C 343.7 314.4, 346.5 314, 346.6 314 C 348.0 314, 346.5 310.7, 344.5 309.4 C 341.0 307.1, 338.5 303.0, 339.9 301.7 C 340.6 300.9, 341.7 301.3, 343.7 303.1 C 355.0 313.5, 362.0 310.4, 367.0 292.6 C 368.7 286.5, 369.1 281.4, 369.6 259 L 370.2 232.5 365.8 229.8 C 357.0 224.4, 349.0 223.7, 336.8 227.3 M 184.3 234.2 C 183.5 235.5, 187.9 237, 192.8 237 C 198.1 237, 203 235.6, 203 234.1 C 203 233.0, 185.0 233.1, 184.3 234.2 M 360.9 236.0 C 360.4 238.8, 360.8 282.2, 361.3 282.6 C 362.7 284.0, 365 280.5, 365 277.0 C 365 274.7, 365.8 272.2, 367 270.7 C 369.5 267.4, 369.9 253.0, 367.5 251.0 C 366.7 250.3, 365.5 247.2, 364.9 244.1 C 363.9 239.5, 361.2 234.0, 360.9 236.0 M 184.3 243.1 C 183.4 244.7, 188.7 247, 193.5 247 C 198.4 247, 203.2 244.9, 201.8 243.4 C 200.8 242.5, 184.9 242.2, 184.3 243.1 M 406.5 249.6 C 405.4 250.4, 404.6 251.6, 404.8 252.2 C 405.1 253.3, 404.5 256.1, 401.9 266 C 401.4 267.9, 400.1 273.5, 399.0 278.5 C 397.8 283.4, 396.2 290.0, 395.3 293.1 C 393.6 299.1, 394.0 301, 396.9 301 C 398.7 301, 399.7 299.2, 402.0 291.5 C 402.7 289.3, 403.7 286.2, 404.2 284.8 C 404.7 283.3, 404.9 281.2, 404.5 280.2 C 404.2 279.0, 404.5 277.7, 405.4 277.0 C 406.3 276.3, 407 274.7, 407 273.4 C 407 272.1, 407.4 270.0, 407.8 268.7 C 408.3 267.5, 409.3 264.4, 409.9 262 C 410.6 259.5, 411.5 256.0, 412.1 254.2 C 413.7 248.8, 410.6 246.3, 406.5 249.6 M 242.8 261.2 C 241.6 263.0, 236.6 269.1, 231.8 274.7 C 222.4 285.6, 221.9 286.7, 224.8 289.3 C 226.7 291.0, 229 291.5, 229 290.2 C 229 289.7, 230.9 287.3, 233.3 284.7 C 243.6 273.9, 250.8 262.7, 249.6 259.5 C 248.6 256.9, 245.2 257.7, 242.8 261.2 M 217 314.3 C 217 315.1, 217.7 316.0, 218.7 316.4 C 220.4 317.1, 220.4 317.2, 218.7 318.4 C 217.0 319.6, 216.4 329, 218.1 329 C 218.5 329, 219.0 330.0, 219.1 331.2 C 219.5 333.8, 223.6 334.8, 226.8 333.0 C 228.7 332.0, 228.7 331.9, 226.4 327.0 C 225.0 324.2, 224 321.7, 224 321.4 C 224 321.1, 222.8 319.1, 221.4 316.9 C 218.9 312.9, 217 311.8, 217 314.3 M 269.4 315.0 C 269.1 315.6, 268.7 318.6, 268.6 321.6 C 268.4 327.8, 269.6 329.4, 274.7 330.2 C 278.5 330.7, 278.7 330.3, 275.8 327.3 C 273.0 324.3, 274.7 323.5, 282.9 324.1 C 286.2 324.4, 288.6 324.2, 288.3 323.8 C 287.2 322.0, 278.4 316.5, 277.1 316.8 C 276.3 317.0, 275.4 316.7, 275.1 316.2 C 274.1 314.6, 270.2 313.8, 269.4 315.0 M 200.7 324.7 C 199.5 326.1, 199.3 327.4, 199.9 331 C 200.5 333.9, 200.4 335.9, 199.7 336.7 C 198.2 338.5, 201.9 341.3, 203.7 339.7 C 204.5 339.1, 204.6 338.3, 204.1 337.6 C 202.5 335.6, 202.3 326.4, 203.8 324.6 C 205.8 322.2, 202.8 322.3, 200.7 324.7" fill="#948d80" fill-rule="evenodd"/>
    <path d="M 440.9 39.6 L 448.3 46.5 443.7 49.2 C 435.6 54.0, 428.9 62.6, 426.9 70.7 C 425.9 75.0, 425.9 75.0, 431.2 66.7 C 435.5 60.0, 445.5 50, 447.8 50 C 451.9 50, 444.8 40.4, 436.5 34.7 C 434.8 33.6, 436.8 35.8, 440.9 39.6 M 449.7 63.0 C 447.1 66.0, 444.9 68.9, 444.9 69.4 C 444.9 70.0, 443.8 72.7, 442.4 75.4 C 439.8 80.6, 439.5 82, 440.7 82 C 441.2 82, 442.7 79.1, 444.2 75.7 C 445.7 72.3, 448.8 67.5, 451.0 65.2 C 453.3 62.9, 455.0 60.2, 454.8 59.3 C 454.5 58.0, 453.2 59.0, 449.7 63.0 M 18.6 64.8 C 17.8 65.9, 19.6 67.5, 23.3 68.9 C 25.0 69.5, 26.6 71.3, 27.5 73.4 C 28.6 75.9, 29.4 76.7, 30.6 76.3 C 32.0 75.7, 32.0 76.0, 31.0 77.8 C 29.1 81.5, 33.3 90.5, 35.3 87.1 C 39.8 80.0, 35.2 71.2, 24.5 66.4 C 22.3 65.4, 20.2 64.4, 19.8 64.2 C 19.4 64.0, 18.9 64.3, 18.6 64.8 M 18 71.4 C 18 71.6, 18.8 73.3, 19.9 75.2 C 21.3 77.4, 21.6 78.9, 20.9 80.0 C 19.7 81.9, 19.7 91.7, 20.9 92.4 C 21.4 92.7, 22.2 92.4, 22.6 91.6 C 23.1 90.9, 24.2 90.0, 25.2 89.6 C 27.8 88.7, 28.4 86.3, 27.1 82.1 C 25.9 78.0, 18 68.7, 18 71.4 M 388 84.4 C 388 85.3, 389.0 87.7, 390.3 89.7 C 391.7 91.8, 393.3 95.2, 394.1 97.3 C 394.8 99.4, 396.2 101.5, 397.1 102.0 C 398.1 102.6, 398.5 103.7, 398.3 105.2 C 398.0 106.4, 399.2 111.6, 400.9 116.7 C 404.1 126.2, 406.8 142.9, 408.9 166.8 C 409.5 173.6, 410.7 182.5, 411.5 186.6 C 413.7 197.3, 413.8 203.5, 411.8 205.6 C 408.4 209.0, 404 201.9, 404 193.1 C 404 190.3, 403.7 187.4, 403.3 186.5 C 402.4 184.1, 401 184.7, 401 187.5 C 401 190.4, 395.9 200.8, 392.1 206 C 389.8 209.0, 389.5 210.4, 389.5 217.0 C 389.5 226.0, 388.3 228.2, 380.4 234.2 C 374.9 238.5, 374.9 238.5, 375.2 246 C 375.5 255.0, 376.1 255.3, 387.2 251.6 C 405.6 245.4, 426.1 234.0, 439.1 222.8 C 445.2 217.5, 445.2 217.5, 438.2 214.2 C 428.6 209.6, 421.4 196.1, 418.0 176.5 C 417.3 172.6, 416.3 168.6, 415.7 167.5 C 415.1 166.4, 414.7 162.4, 414.8 158.8 C 414.9 155.1, 414.5 151.8, 414.0 151.5 C 413.4 151.1, 413 148.2, 413 145 C 413 141.7, 412.5 138.8, 412.0 138.5 C 411.5 138.2, 410.8 135.8, 410.4 133.3 C 410.0 130.8, 408.6 125.8, 407.4 122.3 C 405.0 115.9, 405.6 113.9, 408.5 118.3 C 410.6 121.6, 412.3 127.2, 415.0 140 C 415.9 144.2, 416.3 146.8, 418.9 165.5 C 422.5 191.6, 430.6 207.0, 443.7 212.5 C 448.1 214.3, 447.6 214.5, 451.0 210.7 C 454.3 207.1, 454.6 205.7, 452.4 203.9 C 443.0 196.1, 435.4 159.3, 439.7 142 C 440.8 137.5, 443.6 137.1, 443.2 141.5 C 439.4 182.6, 449.5 202.5, 480.2 214.6 C 494.6 220.2, 497.7 221.4, 509.7 226.4 C 524.6 232.6, 537.8 237.4, 549.3 241.0 C 555.0 242.7, 566 241.4, 566 239.0 C 566 235.9, 563.2 234.6, 557.6 234.8 C 546.4 235.4, 532.2 230.1, 522.5 221.9 C 516.6 216.9, 498.6 208.1, 488 204.9 C 460.2 196.7, 447.4 176.7, 448.1 142.5 C 448.4 128.2, 448.3 126.4, 446.8 126.2 C 445.8 126.0, 444.6 127, 443.7 128.6 C 443.0 130.2, 441.8 132.4, 441.3 133.5 C 434.4 146.3, 431.7 158.1, 432.6 171.6 C 433.3 182.7, 432.5 184.4, 428.6 180.1 C 424.5 175.5, 418 149.9, 418 138.3 C 418 131.5, 415.2 119.7, 412.6 115 C 411.5 113.0, 409.5 109.4, 408.2 107 C 401.0 94.1, 388 79.6, 388 84.4 M 462 90.6 C 462 93.3, 462.7 95.1, 464.6 97.1 C 467.5 100.2, 467.1 102.1, 463.9 100.2 C 460.4 98.0, 461.6 101.6, 465.3 104.4 C 469.2 107.3, 470.7 107.5, 475.6 105.5 C 479.2 103.9, 479.4 101.4, 475.8 102.5 C 474.5 102.9, 473.0 102.4, 471.6 101.2 C 470.4 100.1, 468.6 98.7, 467.5 98.2 C 465.5 97.1, 465.6 97.0, 468.2 96.0 C 469.7 95.5, 471.5 95.2, 472.3 95.5 C 474.5 96.4, 476.5 93.3, 475 91.5 C 474.3 90.6, 473.3 90, 472.9 90 C 472.4 90, 472.3 90.6, 472.6 91.5 C 472.9 92.3, 472.9 93, 472.5 93 C 470.9 93, 466.1 89.9, 465.6 88.5 C 464.4 85.3, 462 86.8, 462 90.6 M 109.7 99.2 C 107.4 102.9, 101 118.5, 101 120.6 C 101 121.7, 100.6 123.0, 100.1 123.5 C 99.6 124.0, 98.7 127.8, 98.1 132 C 97.4 136.1, 95.7 144.2, 94.3 150 C 91.5 161.3, 91.2 179.6, 93.8 182.2 C 94.4 182.8, 95 184.2, 95 185.2 C 95 198.4, 128.9 226.1, 155.5 234.5 C 165.0 237.5, 167.2 239.4, 162.3 240.6 C 160.5 241.0, 159.1 242.6, 157.6 245.8 C 155.6 250.0, 152.6 255.2, 149.2 260.5 C 148.5 261.6, 147.1 263.8, 146.2 265.4 C 145.2 267.0, 142.5 270.4, 140.2 273.0 C 131.8 282.2, 134.5 289.4, 150.2 298.8 C 170.7 311.1, 180.9 322.5, 181.0 333.3 C 181.0 340.3, 182.6 342.2, 188.1 341.8 C 192.2 341.5, 192.4 341.3, 192.1 338.6 C 191.9 337.0, 192.4 334.4, 193.0 332.7 C 194.1 330.2, 194.1 329.5, 192.9 328.6 C 192.1 328.0, 190.3 325.7, 188.8 323.5 C 183.6 315.5, 174.9 306.6, 165.8 299.8 C 153.1 290.3, 147.9 285.2, 148.0 282.0 C 148.0 279.5, 149.1 277.9, 162.2 261.8 C 169.1 253.4, 175 242.9, 175 239.1 C 175 234.0, 164.2 221.9, 156.1 217.8 C 138.0 208.6, 119.2 191.0, 108.8 173.5 C 101.9 161.8, 101.9 146.3, 108.9 119 C 113.5 101.1, 113.8 92.8, 109.7 99.2 M 214.5 101.9 C 210.5 109.5, 207.2 124.1, 208.5 128.1 C 209.6 131.7, 211.8 130.1, 212.5 125.2 C 213.5 117.8, 215.8 106.4, 217.0 103.4 C 218.6 99.2, 216.5 98.0, 214.5 101.9 M 172 102.5 C 172 103.2, 177.4 113.4, 179.3 116.1 C 180.2 117.3, 181 117.9, 181 117.4 C 181 116.8, 180.5 115.9, 179.9 115.3 C 179.2 114.6, 179.1 113.9, 179.7 113.6 C 181.3 112.6, 191 127.9, 191 131.2 C 191 131.5, 194.7 137.8, 199.3 145.1 C 211.4 164.3, 215.9 173.9, 219.7 188.5 C 220.3 190.7, 221.3 194.3, 221.9 196.6 C 223.8 203.8, 223.2 220.7, 220.9 227.0 C 218.3 234.1, 218.9 236.2, 224.2 238.4 C 226.5 239.4, 230.0 240.8, 232 241.7 C 238.2 244.4, 249.3 247.8, 250.2 247.3 C 250.7 247.0, 251.8 247.4, 252.8 248.2 C 255.0 250.1, 263.5 252.4, 264.9 251.5 C 265.6 251.1, 266.9 251.5, 268.0 252.5 C 269.2 253.5, 270.7 254.0, 272.1 253.6 C 273.3 253.3, 275.7 253.7, 277.4 254.4 C 281.3 256.2, 288.9 257.3, 296.5 257.4 C 299.8 257.4, 302.9 257.7, 303.5 258.1 C 304.9 259.0, 308.8 258.5, 310.1 257.2 C 310.9 256.4, 310.4 254.1, 308.6 248.9 C 305.6 240.7, 304.0 238.5, 298.8 235.9 C 294.8 233.8, 293 230.1, 293 223.9 C 293 221.2, 291.8 218.5, 288.5 213.5 C 286.0 209.8, 284 206.1, 284 205.3 C 284 204.5, 283.4 202.8, 282.8 201.6 C 281.6 199.4, 281.2 188.1, 282.2 186.4 C 282.5 185.9, 283.7 182.7, 284.8 179.4 C 285.9 176.1, 289.5 167.8, 292.8 161 C 299.8 146.2, 303.5 136.0, 305.0 126.7 C 305.8 121.8, 306.6 120, 307.7 120 C 309.2 120, 309.1 123.5, 307.4 132.7 C 307.0 134.6, 307.1 136, 307.7 136 C 309.2 136, 309.7 134.0, 310.5 125.1 C 311.2 117.1, 311.2 117.0, 308.6 115.8 C 303.7 113.6, 302.6 115.4, 296.1 136 C 293.9 142.8, 289.9 153.2, 287.2 159 C 277.6 179.1, 274 189.5, 274 196.7 C 274 209.1, 258.1 216.0, 241.6 210.9 C 232.6 208.1, 229.9 204.8, 227.0 193.1 C 224.5 182.8, 219.5 169.4, 215.5 162.3 C 213.9 159.6, 209.8 151.9, 206.3 145.2 C 202.8 138.4, 197.8 129.7, 195.2 125.7 C 188.1 114.6, 172 98.6, 172 102.5 M 230.8 110.7 C 224.8 125.1, 223.1 135.2, 223.7 152.2 C 224.1 162.2, 226.5 159.7, 227.3 148.5 C 227.9 139.2, 232.6 117.0, 235.5 109.7 C 239.8 98.7, 235.4 99.7, 230.8 110.7 M 98.8 108.2 C 85.5 134.2, 53 143.7, 34.5 126.8 C 31.5 124.0, 29 120.9, 29 119.9 C 29 117.2, 30.5 117.5, 33.7 120.7 C 35.2 122.3, 35.7 122.6, 34.7 121.5 C 33.8 120.3, 32.3 117.5, 31.5 115.2 C 29.9 110.5, 27.0 106.0, 25.6 106.0 C 24.0 105.9, 25.9 119.9, 27.9 123.8 C 32.0 131.7, 43.7 140.2, 50.6 140.2 C 52.5 140.2, 54.2 140.6, 54.5 141.1 C 55.3 142.2, 60.7 142.2, 61.1 141.0 C 61.3 140.5, 63.9 139.8, 66.8 139.6 C 72.1 139.1, 87.5 132.6, 91.2 129.3 C 92.1 128.4, 93.8 124.5, 95.0 120.6 C 96.2 116.7, 98.3 111.3, 99.6 108.7 C 100.9 106.1, 101.8 104, 101.5 104 C 101.2 104, 100.0 105.8, 98.8 108.2 M 256.1 114.7 C 247.7 131.3, 243.1 166.6, 249.2 167.8 C 250.6 168.0, 251.0 167.3, 251.0 163.8 C 251.0 154.7, 254.5 135.1, 258.3 122 C 261.5 110.9, 261.7 109.7, 260.2 109.2 C 259.6 109.0, 257.7 111.4, 256.1 114.7 M 281.2 122.2 C 280.3 123.3, 278.1 131.7, 271.3 159.8 C 270.2 164.3, 270.0 166.4, 270.8 167.2 C 271.6 168.0, 272.0 167.9, 272.4 166.9 C 276.4 155.3, 279.9 143.6, 280.4 140.5 C 280.8 138.3, 281.8 133.4, 282.7 129.6 C 284.3 122.8, 283.6 119.3, 281.2 122.2 M 542 140.8 C 542 142.7, 547.9 153.6, 550.1 155.7 C 553.2 158.5, 559.1 161, 562.9 161 C 565.8 161, 570 164.1, 570 166.3 C 570 168.9, 571.8 165.1, 572.1 161.9 C 572.5 157.0, 571.4 155.6, 567.6 156.4 C 562.1 157.5, 554.1 154.2, 548.7 148.6 C 546.1 145.9, 544.1 143.4, 544.1 143.1 C 544.3 141.3, 543.8 140, 543 140 C 542.4 140, 542 140.3, 542 140.8 M 295.2 165.7 C 286.1 185.3, 284.4 198.5, 289.6 208.1 C 292.6 213.6, 294.5 214.1, 298.0 210.4 C 303.1 205.0, 317.3 197.9, 318.3 200.3 C 318.9 201.9, 324.3 199.8, 327.9 196.5 C 328.9 195.6, 331.4 194.6, 333.4 194.3 C 335.4 193.9, 336.9 193.2, 336.6 192.6 C 335.8 190.1, 318.1 192.2, 306.6 196.1 C 300.5 198.1, 300.5 198.1, 298.6 195.8 C 296.1 192.7, 296.7 167.9, 299.3 161.7 C 301.2 157.5, 301.3 157, 300.1 157 C 299.6 157, 297.4 160.9, 295.2 165.7 M 570.0 169.7 C 570.0 170.7, 570.7 172.3, 571.5 173.3 C 572.2 174.4, 572.7 175.6, 572.4 176.1 C 571.7 177.1, 574.3 182.2, 576.4 183.9 C 578.0 185.2, 578.6 189, 577.1 189 C 575.6 189, 570.8 183.2, 568.1 177.9 C 564.9 171.7, 562.9 170.5, 563.0 174.6 C 563.0 179.8, 564.9 184.7, 569.0 189.2 C 571.2 191.7, 573 194.3, 573 194.9 C 573 195.5, 573.6 196, 574.4 196 C 575.2 196, 578.4 197.3, 581.5 198.9 C 585.3 200.9, 586.6 201.2, 585.5 200.1 C 582.1 196.3, 583.7 194.9, 587.9 198.1 C 591.0 200.3, 601.7 203.2, 602.4 202.0 C 603.3 200.6, 600.5 198.3, 596.0 196.5 C 586.5 192.9, 575.1 181.0, 573.3 173 C 572.4 168.7, 572.0 168, 571.0 168 C 570.4 168, 570.0 168.7, 570.0 169.7 M 495 174.8 C 495 176.2, 497.2 177.8, 498.6 177.3 C 499.4 177.0, 500.7 177.3, 501.6 178.1 C 503.7 179.8, 519.3 179.9, 521.1 178.2 C 522.9 176.4, 521.2 175.3, 518.9 176.7 C 515.9 178.6, 506.9 178.2, 502.2 176 C 497.9 173.9, 495 173.4, 495 174.8 M 562 204.3 C 558.1 205.4, 557.4 206.0, 557.1 208.3 C 556.7 212.0, 564.4 220, 568.4 220 C 571.4 220, 576.0 222.1, 577.9 224.4 C 578.6 225.2, 579.7 226, 580.2 226 C 580.8 226, 580.5 225.1, 579.6 224.1 C 578.7 223.1, 578 221.8, 578 221.2 C 578 220.6, 576.0 219.0, 573.6 217.6 C 568.6 214.7, 567.3 212.4, 569.3 210.1 C 570.0 209.2, 570.9 207.6, 571.3 206.6 C 571.9 204.8, 572.2 204.9, 574.4 207.3 C 575.8 208.8, 577.4 210, 578.0 210 C 578.6 210, 580.5 211.4, 582.1 213.1 C 586.0 217.3, 586.7 216.1, 583.5 211.0 C 578.7 203.4, 572.6 201.5, 562 204.3 M 379.8 211.6 C 379.3 218.4, 377.6 219.0, 369.8 215.2 C 353.5 207.3, 329.8 207.2, 315.4 214.9 C 306.7 219.6, 304.5 219.0, 305.9 212.6 C 306.9 208.1, 305.4 207.7, 301.8 211.7 C 296.4 217.5, 295.1 226.1, 299.0 230.0 C 301.1 232.1, 303 231.9, 303 229.6 C 303 227.4, 307.2 224.2, 315 220.6 C 339.7 208.9, 370.5 213.3, 375.4 229.2 C 376.0 231.5, 376.8 231.4, 380.4 228.5 C 384.5 225.1, 385.7 216.4, 382.9 210.8 C 380.4 205.9, 380.1 206.0, 379.8 211.6 M 330.5 220.4 C 321.7 221.8, 309.3 226.9, 308.3 229.5 C 307.7 231.0, 311.3 244.1, 313.0 246.5 C 313.3 247.0, 313.9 248.4, 314.2 249.5 C 315.7 254.9, 320.3 265.8, 324.3 273.7 C 331.8 288.6, 334.0 299.9, 327.2 289.5 C 325.0 286.1, 325.0 286.1, 313.5 286.7 C 304.0 287.1, 301.6 287.0, 300.2 285.7 C 297.2 283.0, 287.4 278, 285.3 278 C 283.0 278, 280.9 280.0, 278.6 284.7 C 276.3 289.1, 276.4 289.3, 280.9 292.3 C 283.1 293.8, 286.1 296.7, 287.5 298.9 C 290.1 302.7, 290.1 302.7, 292.3 300.5 C 294.9 297.9, 325.1 295.9, 329.2 298.1 C 331.8 299.5, 336.6 295.0, 338.0 289.8 C 339.2 285.3, 338.4 281.3, 332.5 262.9 C 327.4 247.1, 325.0 234.7, 326.6 232.1 C 327.9 230.0, 339.7 225.9, 346.6 225.2 C 353.0 224.6, 360.2 226.2, 365.2 229.5 C 369.8 232.6, 370 232.6, 370 229.1 C 370 221.4, 350.9 217.2, 330.5 220.4 M 184.3 234.2 C 183.5 235.5, 187.9 237, 192.8 237 C 198.1 237, 203 235.6, 203 234.1 C 203 233.0, 185.0 233.1, 184.3 234.2 M 184.3 243.1 C 183.4 244.7, 188.7 247, 193.5 247 C 198.4 247, 203.2 244.9, 201.8 243.4 C 200.8 242.5, 184.9 242.2, 184.3 243.1 M 214.5 244.2 C 213.7 245.4, 213 246.7, 213 247.1 C 213 247.5, 210.5 251.3, 207.5 255.6 C 204.4 260.3, 201.8 265.1, 201.4 267.5 C 201.0 269.7, 199.7 274.7, 198.3 278.7 C 197.0 282.7, 196 286.9, 196 287.9 C 196 290.6, 204.9 297.1, 214.1 301.1 C 218.1 302.9, 222.6 305.1, 224.1 306.1 C 229.0 309.5, 229.5 307.4, 225 302.3 C 221.3 298.1, 221.2 297.1, 224.7 294.3 C 227.5 292.1, 227.5 292.1, 225.2 289.7 C 222.0 286.3, 222.1 286.0, 231.8 274.7 C 236.6 269.1, 241.6 263.0, 242.9 261.1 C 245.8 256.9, 249.5 257.0, 249.4 261.3 C 249.4 263.9, 249.5 264.0, 250.7 262.3 C 254.3 257.4, 252.7 253, 247.5 253 C 246.3 253, 244.9 252.6, 244.4 252.1 C 243.9 251.6, 239.9 250.0, 235.5 248.4 C 231.1 246.9, 225.5 244.8, 223.1 243.8 C 217.5 241.4, 216.4 241.5, 214.5 244.2 M 402.6 251.7 C 402.2 252.3, 400.7 252.9, 399.2 253.2 C 397.7 253.5, 393.5 254.8, 390 256.2 C 386.4 257.5, 381.8 259.0, 379.7 259.3 C 375.0 260.2, 374.4 261.6, 374.1 271.5 C 373.1 306.7, 364.7 317.4, 334.7 321.4 C 330.8 322.0, 329.5 322.7, 326.9 326.0 C 323.3 330.6, 323.4 331.0, 330.2 334.7 C 336.1 337.9, 337.4 337.8, 341.5 334.0 C 343.1 332.5, 347.4 329.9, 351 328.4 C 354.5 326.9, 358.1 325.1, 359 324.4 C 359.8 323.8, 361.1 323.2, 362.0 323.2 C 364.1 323.3, 388.0 311.5, 391 308.9 C 392.3 307.8, 392.8 307.1, 392 307.5 C 391.1 307.9, 389.7 308.9, 388.8 309.6 C 387.5 310.8, 386.9 310.7, 384.8 309.0 C 382.0 306.6, 384.1 304.0, 388.9 303.9 C 391.5 303.9, 391.5 303.9, 389.1 302.1 C 387.5 300.9, 387.1 300.0, 387.8 299.5 C 389.5 298.5, 393 300.8, 393 302.9 C 393 305.8, 394.6 306.2, 396.4 303.7 C 397.8 301.7, 397.8 301.4, 396.0 300.8 C 393.6 299.9, 393.5 298.8, 395.3 292.9 C 396.1 290.4, 397.7 284.2, 398.9 279 C 400.0 273.7, 401.4 267.9, 401.9 266 C 405.0 254.3, 405.2 252.8, 404.2 251.8 C 403.6 251.2, 403.0 251.1, 402.6 251.7 M 279 295.8 C 279 296.4, 279.4 297, 280 297 C 280.5 297, 281 297.4, 281 297.9 C 281 298.5, 280.1 298.5, 278.7 297.9 C 275.5 296.4, 271 298.2, 271 300.9 C 271 302.4, 271.6 303, 273.4 303 C 274.7 303, 276.1 303.4, 276.5 304 C 278.3 306.9, 286.8 304.4, 285.1 301.3 C 283.7 298.6, 279 294.4, 279 295.8 M 339.5 301.9 C 338.7 303.2, 341.5 307.4, 344.5 309.4 C 345.9 310.3, 347 311.7, 347 312.5 C 347 313.8, 347.3 313.8, 350 312.5 C 353.8 310.4, 353.7 309.8, 349.1 307.2 C 347.1 306.0, 344.5 304.1, 343.5 303.0 C 341.4 300.7, 340.4 300.5, 339.5 301.9 M 199.5 324.5 C 194.7 329.6, 194.9 341.0, 199.8 340.9 C 202.3 340.9, 202.4 340.8, 200.6 339.4 C 199.2 338.4, 198.9 337.7, 199.7 336.7 C 200.4 335.9, 200.5 333.9, 199.9 331 C 199.2 327.1, 199.4 326.1, 201.2 324.2 C 202.4 323.0, 203.0 322, 202.6 322 C 202.2 322, 200.8 323.1, 199.5 324.5 M 317.2 323.0 C 310.6 323.9, 308.9 324.6, 309.0 326.2 C 309.0 329.5, 310.4 330.0, 315.5 328.4 C 325.5 325.4, 326.6 321.8, 317.2 323.0 M 241 330.9 C 241 332.3, 231.3 337.7, 226.8 339.0 C 222.2 340.2, 220.2 342.4, 221.9 344.4 C 222.7 345.3, 223.0 348.7, 222.8 353.7 C 222.5 362.4, 223.2 364.4, 226.2 363.6 C 227.3 363.3, 229.2 363.8, 230.5 364.6 C 235.0 367.5, 237.0 366.1, 239.4 358.6 C 240.7 354.8, 242.3 351.4, 243.1 350.9 C 244.9 349.7, 251.0 349.7, 252.9 350.9 C 255.0 352.2, 256.9 351.1, 258.4 347.3 C 259.2 345.5, 260.3 344, 260.9 344 C 263.1 344, 260.5 340.7, 256.6 338.8 C 254.3 337.7, 251.1 335.5, 249.5 334.1 C 247.9 332.6, 247.1 332.3, 247.9 333.2 C 249.0 334.7, 249.0 335.3, 248.0 336.2 C 246.7 337.6, 243 334.0, 243 331.3 C 243 330.6, 242.5 330, 242 330 C 241.4 330, 241 330.4, 241 330.9 M 309.5 333.9 C 308.4 335.7, 310.2 345.9, 312.0 347.5 C 314.1 349.4, 319.4 348.5, 318.5 346.3 C 318.2 345.4, 319.3 344.4, 321.6 343.5 C 326.0 341.6, 326 341.6, 326 343.5 C 326 344.3, 325.4 345, 324.8 345 C 324.1 345, 323.9 345.2, 324.2 345.5 C 325.1 346.5, 328.9 344.0, 328.6 342.7 C 328.4 342.0, 328.5 341.8, 328.7 342.1 C 329.3 343.2, 332 341.9, 332 340.5 C 332 337.4, 311.1 331.3, 309.5 333.9 M 262.2 346.2 C 260.5 347.8, 260.6 361.1, 262.2 363.1 C 263.8 365.1, 267.6 365.9, 271 365.0 C 273.5 364.3, 273.5 364.3, 271.2 363.1 C 269.6 362.3, 269 361.0, 269 358.9 C 269 355.3, 270.6 355.0, 271.9 358.4 C 272.8 360.7, 274.7 362.5, 275.5 361.7 C 276.8 360.4, 273.3 353.7, 269.3 349.6 C 264.1 344.5, 263.9 344.4, 262.2 346.2 M 244.7 354.7 C 240.8 359.2, 240.3 366, 244 366 C 245.0 366, 246.1 366.4, 246.5 367 C 247.4 368.5, 255.5 368.2, 256.9 366.5 C 261.3 361.2, 249.2 349.5, 244.7 354.7" fill="#625b53" fill-rule="evenodd"/>
    <path d="M 362.1 7.9 C 361.3 8.3, 359.0 8.5, 356.8 8.2 C 354.7 7.9, 352.4 8.1, 351.7 8.7 C 351.0 9.2, 348.6 10.0, 346.4 10.3 C 342.0 11.0, 333.4 14.4, 331 16.4 C 330.1 17.1, 328.3 17.9, 327 18.3 C 325.6 18.6, 321.4 20.9, 317.7 23.4 C 314.0 25.9, 310.7 28, 310.4 28 C 310.2 28, 303.6 31.1, 295.9 35 C 288.1 38.8, 281.3 42, 280.8 42 C 280.3 42, 277.1 43.3, 273.8 45 C 270.5 46.6, 267.2 48, 266.6 48 C 265.9 48, 263.6 48.9, 261.5 50 C 259.3 51.1, 256.9 52, 256.1 52 C 255.2 52, 252.8 52.8, 250.5 53.8 C 239.8 58.7, 217.6 62.4, 206.5 61.2 C 185.5 58.9, 155.4 61.1, 151.3 65.3 C 150.9 65.6, 149.7 66.0, 148.5 66.0 C 147.4 66.0, 145.3 66.9, 144 68 C 142.6 69.0, 141.1 69.9, 140.7 69.9 C 136.0 70.1, 119.4 86.0, 121.6 88.2 C 121.9 88.5, 120.5 89.5, 118.5 90.5 C 116.6 91.4, 115 92.8, 115 93.6 C 115 96.2, 117.4 94.9, 122.9 89.5 C 128.6 83.9, 136.9 79.0, 147.5 75.0 C 150.8 73.8, 154.4 72.4, 155.5 72.0 C 168.1 67.2, 180.2 65.7, 201 66.3 C 211.1 66.7, 222.2 66.5, 225.5 66.0 C 243.1 63.3, 253.4 60.4, 267.3 54.0 C 270.7 52.4, 277.1 49.7, 281.5 48.0 C 291.3 44.1, 314.9 33.0, 317.0 31.3 C 317.9 30.5, 318.9 30, 319.2 30 C 319.6 30, 323.1 28.4, 327.1 26.5 C 337.4 21.7, 351.3 17.3, 360.8 15.9 C 378.1 13.2, 404.8 20.6, 422 32.8 C 438.1 44.3, 453.1 50.7, 443 41.7 C 441.0 40.0, 436.3 35.8, 432.5 32.4 C 424.8 25.5, 419.6 21.7, 414.6 19.5 C 412.9 18.7, 410.8 17.6, 410 17.1 C 396.9 9.3, 368.4 3.8, 362.1 7.9 M 490.5 70.9 C 490.2 71.4, 491.3 72.8, 493.0 74.0 C 495.3 75.6, 498.3 80.6, 504.4 93.3 C 513.8 112.5, 516.8 116.3, 528 122.3 C 534.5 125.8, 541.0 127.8, 540.9 126.3 C 540.9 125.5, 535.6 121.5, 529.8 117.8 C 526.7 115.8, 520.5 105.2, 515.8 93.7 C 514.0 89.4, 511.3 84.5, 509.8 82.8 C 508.3 81.1, 506.9 79.4, 506.7 79.0 C 504.9 74.8, 492.0 68.4, 490.5 70.9 M 366.7 100.6 C 366.4 100.9, 367.9 104.7, 370.1 109.0 C 378.7 126.2, 381.4 138.9, 381.2 161.2 C 381.0 175.6, 381.2 178.1, 382.6 178.6 C 392.3 182.4, 390.9 135.2, 380.8 117.1 C 374.2 105.3, 368.5 98.7, 366.7 100.6 M 421.6 117.7 C 420.1 127.8, 419.6 142, 420.7 142 C 422.2 142, 422.7 138.5, 423.5 124.7 C 424.2 112.8, 422.9 108.2, 421.6 117.7 M 166.5 127.8 C 166.2 128.3, 168.1 130.9, 170.6 133.6 C 187.5 151.8, 202.5 180.2, 207.1 202.8 C 208.0 207.6, 209.6 210.3, 211.1 209.4 C 214.2 207.4, 206.9 177.3, 200.2 164.5 C 189.7 144.5, 169.7 122.7, 166.5 127.8 M 515.7 141.7 C 511.3 142.1, 510.6 144, 514.9 144 C 516.7 144, 519.6 145.3, 522.5 147.5 C 528.5 152.2, 531.1 150.7, 525.9 145.7 C 521.8 141.8, 520.7 141.3, 515.7 141.7 M 596.5 212 C 596.1 212.5, 596.2 213, 596.5 213 C 596.9 213, 596.6 213.7, 595.7 214.7 C 593.8 216.8, 594.4 226, 596.5 226 C 597.9 226, 601 219.0, 601 215.6 C 601 212.2, 597.9 209.6, 596.5 212 M 360.9 236.0 C 360.4 238.8, 360.8 282.2, 361.3 282.6 C 362.7 284.0, 365 280.5, 365 277.0 C 365 274.7, 365.8 272.2, 367 270.7 C 369.5 267.4, 369.9 253.0, 367.5 251.0 C 366.7 250.3, 365.5 247.2, 364.9 244.1 C 363.9 239.5, 361.2 234.0, 360.9 236.0 M 174 285.8 C 174 289.4, 191.0 302.7, 199.6 305.9 C 202.8 307.1, 206.9 309.0, 208.8 310.0 C 212.7 312.3, 214.8 312.5, 215.6 310.4 C 216.4 308.3, 214.3 306.2, 210.6 305.4 C 208.9 305.0, 206.6 304.2, 205.5 303.6 C 204.4 303.0, 202.8 302.4, 202.1 302.3 C 201.3 302.2, 199.3 300.7, 197.5 299.0 C 195.8 297.3, 193.9 296, 193.2 296 C 192.6 296, 192.0 295.6, 191.8 295.2 C 190.5 292.0, 174 283.4, 174 285.8 M 272 306.8 C 272 310.1, 274.3 311.2, 278.8 310.0 C 287.0 307.8, 286.4 305, 277.8 305 C 272.7 305, 272 305.2, 272 306.8 M 218.7 311.5 C 218.4 311.8, 219.4 314.0, 220.8 316.3 C 222.3 318.6, 224.4 322.5, 225.4 325 C 227.7 330.4, 229.4 332.4, 230.9 331.5 C 231.7 331.0, 231.7 330.4, 230.8 329.2 C 229.7 328.0, 229.9 327.4, 231.7 325.9 C 233.0 324.9, 233.9 323.8, 233.9 323.3 C 233.9 321.6, 227.8 315.8, 225.9 315.7 C 224.9 315.6, 224.2 315.3, 224.5 315.1 C 224.9 314.7, 220.6 311, 219.7 311 C 219.5 311, 219.0 311.2, 218.7 311.5 M 203.3 325.0 C 202.7 325.6, 202.4 328.2, 202.7 331.2 C 203.2 336.8, 205.6 340.7, 207.3 339.0 C 207.9 338.4, 209.3 338, 210.5 338 C 214.0 338, 214.2 335.2, 211.2 329.6 C 208.4 324.4, 205.6 322.7, 203.3 325.0" fill="#b8b2a6" fill-rule="evenodd"/>
    <path d="M 471.5 33.9 C 470.5 35.7, 470.0 38.0, 470.3 39.0 C 470.5 40.0, 470.1 41.1, 469.3 41.4 C 468.3 41.7, 468.1 42.7, 468.6 44.6 C 469.1 46.7, 468.7 47.6, 466.8 49.1 C 464.6 50.8, 464.6 51.1, 466.2 52.3 C 467.7 53.5, 467.7 53.8, 466.3 55.1 C 464.6 56.9, 465.4 64, 467.3 64 C 468.0 64, 469.1 66.1, 469.9 68.6 C 471.6 74.4, 473.8 79, 474.9 79 C 475.4 79, 476.5 79.2, 477.4 79.6 C 479.6 80.4, 479.3 78.8, 477 76.2 C 474.9 73.9, 474.3 72.4, 475.9 73.4 C 479.2 75.4, 481.0 47.2, 478.0 40.1 C 476.9 37.4, 476.9 36.6, 477.9 36.0 C 479.6 35.0, 478.2 32.6, 476.4 33.3 C 475.6 33.6, 474.6 33.1, 474.1 32.2 C 473.3 30.9, 472.9 31.1, 471.5 33.9 M 435.6 60.2 C 430.3 67.3, 425.8 75.2, 426.3 76.5 C 427.3 78.9, 428.7 78.1, 429.9 74.5 C 431.0 71.4, 432.4 69.3, 438.9 60.8 C 440.7 58.4, 440.7 57, 438.8 57 C 438.4 57, 437.0 58.4, 435.6 60.2 M 450.3 65.8 C 446.6 70.1, 440.4 82.9, 439.5 88.1 C 438.8 92.3, 440.4 94.3, 441.4 90.3 C 441.7 88.9, 442.9 85.9, 443.9 83.6 C 444.9 81.3, 446.1 78.4, 446.5 77.1 C 447.4 74.0, 452.8 68, 454.7 68 C 455.6 68, 455.9 67.4, 455.6 66.4 C 455.2 65.5, 455 64.1, 455 63.4 C 455 61.2, 453.7 61.8, 450.3 65.8 M 8.6 63.8 C 8.3 64.2, 10.3 66.5, 13.0 68.8 C 18 73.1, 18 73.1, 18 83.5 C 18 92.8, 18.2 94.1, 20.2 96.4 C 23.5 100.1, 27.4 100.3, 27.8 96.7 C 28.2 93.3, 30 93.1, 30 96.5 C 30 99.6, 32.0 99.7, 34.6 96.7 C 37.0 94.0, 38.3 91, 36.9 91 C 36.4 91, 36 90.5, 36 89.9 C 36 89.3, 36.3 89.1, 36.8 89.4 C 38.9 90.6, 39.9 85.1, 38.5 79.7 C 37.0 74.1, 29.2 65.6, 24.2 64.3 C 20.2 63.3, 20.5 64.8, 24.5 66.6 C 33.8 70.4, 37.7 75.8, 36.5 82.9 C 35.7 87.6, 34.7 88.5, 32.6 86.5 C 31.2 85.1, 30.8 85.2, 28.4 87.4 C 26.9 88.8, 25.1 90, 24.4 90 C 23.7 90, 22.9 90.7, 22.6 91.5 C 22.2 92.4, 21.5 92.8, 21.0 92.5 C 19.7 91.7, 19.7 82.0, 20.9 80.0 C 21.6 78.9, 21.2 77.4, 19.9 75.1 C 17.6 71.3, 17.9 70.0, 20.3 72.5 C 21.2 73.4, 22 73.7, 22 73.2 C 22 72.7, 21.4 71.8, 20.8 71.2 C 20.1 70.5, 19.9 69.6, 20.3 69.2 C 20.8 68.8, 22.5 70.0, 24.1 71.8 C 27.2 75.2, 28.9 75.5, 27.1 72.3 C 26.6 71.3, 24.4 69.6, 22.3 68.5 C 20.2 67.4, 18.6 66.1, 18.8 65.6 C 19.6 63.4, 9.8 61.7, 8.6 63.8 M 179.8 113.5 C 179.1 114.2, 183.5 123.5, 186.1 126.8 C 188.5 129.9, 188.4 131, 186 131 C 183.7 131, 183.4 132.2, 185.3 133.8 C 186.2 134.6, 186.9 134.6, 187.9 133.7 C 188.9 132.7, 189.9 133.3, 192.7 136.5 C 194.7 138.7, 195.6 139.3, 194.8 138 C 192.5 134.2, 191.4 132.2, 187.4 124 C 183.7 116.4, 180.8 112.4, 179.8 113.5 M 407.4 122.3 C 408.6 125.8, 410.0 130.8, 410.4 133.3 C 411.0 137.6, 413.3 141.0, 414.6 139.6 C 415.0 139.2, 414.8 137.3, 414.2 135.2 C 413.6 133.1, 412.4 128.9, 411.5 125.9 C 409.8 120.1, 407.5 116, 405.9 116 C 405.5 116, 406.1 118.8, 407.4 122.3 M 498.2 178.2 C 499.1 181.1, 513 186.4, 513 183.9 C 513 183.3, 513.7 183.0, 514.7 183.3 C 515.7 183.6, 518.0 183.0, 520 181.9 C 521.9 180.9, 523.2 180.0, 523 179.9 C 522.7 179.8, 518.1 179.7, 512.8 179.6 C 506.5 179.5, 502.6 179.0, 501.8 178.2 C 501.1 177.5, 499.9 177, 499.2 177 C 498.4 177, 498.0 177.5, 498.2 178.2 M 229.8 312.0 C 233.2 315.6, 237.0 319.9, 238.1 321.7 C 239.2 323.5, 240.8 325, 241.5 325 C 242.3 325, 239.8 320.8, 235.8 315.4 C 231.1 309.2, 228.4 306.3, 227.9 307.1 C 227.3 308.0, 226.7 308.0, 225.3 306.9 C 224.3 306.2, 226.3 308.5, 229.8 312.0" fill="#36312c" fill-rule="evenodd"/>
    <path d="M 629.9 95.7 C 620.9 119.1, 604.3 140.1, 582.9 155.1 C 575.5 160.3, 574.5 161.8, 576.0 165.5 C 576.5 166.9, 577 169.1, 577 170.4 C 577 177.0, 581.5 174.5, 598.2 158.7 C 600.4 156.6, 602.6 155, 603.1 155 C 604.3 155, 604.2 156.7, 602.9 157.5 C 602.2 157.9, 600.1 160.7, 598.1 163.8 C 596.1 166.9, 593.1 171.2, 591.5 173.2 C 588.3 177.5, 589.0 179.7, 593.3 178.6 C 603.2 176.1, 632 134.9, 632 123.2 C 632 121.4, 632.4 120, 632.9 120 C 633.4 120, 633.8 118.2, 633.7 116.0 C 633.6 113.4, 634.2 111.4, 635.5 109.9 C 638.0 107.2, 638.6 90.7, 636.3 88.4 C 633.9 86.0, 633.4 86.6, 629.9 95.7 M 572.4 114.1 C 568.5 118.1, 561.9 122.7, 554.5 126.5 C 548.9 129.4, 548.5 129.9, 548.5 133.0 C 548.5 137.5, 549.9 137.6, 555.3 133.5 C 563.1 127.5, 564.8 129.7, 557.5 136.2 C 551.5 141.4, 551.1 146.3, 557 142.2 C 565.1 136.5, 575.7 121.7, 576.7 114.7 C 577.3 110.1, 576.2 110.0, 572.4 114.1 M 186.7 276.3 C 182.2 280.3, 182.1 281.1, 185.6 283.9 C 188.9 286.5, 190.7 285.2, 192.5 279.2 C 194.6 272.2, 192.5 271.2, 186.7 276.3" fill="#ead8b8" fill-rule="evenodd"/>
    <path d="M 367.7 1.6 C 367.2 2.0, 358.4 3.1, 353.5 3.4 C 350.7 3.5, 347.6 4.1, 346.5 4.7 C 344.1 5.9, 334.3 9, 332.5 9 C 331.8 9, 330.0 10.1, 328.4 11.4 C 326.8 12.8, 324.9 13.9, 324.2 13.9 C 322.8 14, 312.8 18.9, 312 20.0 C 311.7 20.4, 307.9 22.6, 303.5 25.0 C 299.1 27.3, 295.0 29.6, 294.5 30.1 C 294.0 30.6, 292.9 31, 292.1 31 C 290.6 31, 273.4 39.3, 271.3 41.1 C 270.7 41.6, 269.5 41.7, 268.7 41.4 C 267.9 41.1, 266.7 41.5, 266.0 42.4 C 265.3 43.2, 263.2 44.2, 261.4 44.5 C 259.5 44.9, 257.5 45.8, 256.9 46.5 C 256.2 47.4, 254.8 47.7, 253.3 47.3 C 251.7 46.9, 250.8 47.2, 250.3 48.4 C 250.0 49.4, 249.0 49.8, 248.0 49.5 C 247.0 49.2, 245.7 49.6, 245 50.5 C 244.2 51.4, 242.9 51.7, 241.8 51.4 C 240.7 51.1, 238.8 51.5, 237.4 52.4 C 236.1 53.2, 233.7 54, 232.0 54 C 230.4 54, 228.8 54.4, 228.4 55.0 C 228.0 55.7, 217.0 56.0, 196.4 55.9 C 174.1 55.8, 164.5 56.1, 162.9 57.0 C 161.6 57.7, 159.1 57.9, 156.8 57.5 C 153.8 57.1, 152.8 57.3, 152.3 58.5 C 152.0 59.4, 151.1 59.8, 150.3 59.5 C 148.4 58.8, 137.5 64.2, 131.1 69.0 C 128.2 71.2, 125.5 73, 125.1 73 C 124.7 73, 123.7 74.0, 123.0 75.3 C 122.3 76.7, 120.6 78.2, 119.3 78.8 C 118.0 79.4, 116.5 80.9, 116.0 82.2 C 114.8 85.2, 111.2 89, 109.5 89 C 107.8 89, 95 96.8, 95 97.9 C 95 98.2, 91.4 102.1, 87.0 106.5 C 65.4 128.0, 52.4 131.7, 40.7 119.5 C 35.4 113.9, 33.3 104.5, 36.9 102.2 C 38.6 101.2, 43.3 93.5, 43.2 92 C 43.2 91.7, 43.4 90.9, 43.7 90.1 C 45.7 85.0, 41.6 70.9, 37.1 67.1 C 32.5 63.4, 30.5 61.9, 29.5 61.9 C 28.9 61.8, 27.6 61.6, 26.5 61.3 C 12.0 57.5, -5.1 63.0, 4.2 68.4 C 12.0 72.8, 13.5 75.8, 13.2 86.6 C 13.0 92.8, 13.4 95.0, 14.5 96.0 C 15.3 96.6, 16 97.8, 16 98.5 C 16 99.3, 17.3 100.6, 19.0 101.5 C 20.7 102.3, 21.8 103.4, 21.5 103.8 C 19.8 106.6, 20.7 121.8, 22.7 126.0 C 24.8 130.3, 32.0 139, 33.4 139 C 33.8 139, 35.5 140.0, 37.3 141.4 C 45.8 147.8, 72.3 148.5, 79.0 142.4 C 79.9 141.6, 81.0 141, 81.5 141 C 82.1 141, 84.2 139.8, 86.3 138.3 C 90.2 135.7, 93.2 136.2, 91.3 139.1 C 90.9 139.8, 90.4 140.7, 90.4 141 C 90.3 141.2, 89.8 143.4, 89.1 145.8 C 88.4 148.2, 88.1 150.8, 88.4 151.7 C 88.7 152.5, 88.5 153.8, 87.9 154.5 C 86.3 156.4, 86.1 177.6, 87.6 182.5 C 91.4 195.2, 98.0 205.2, 107.6 212.6 C 109.2 213.9, 112.3 216.5, 114.5 218.5 C 116.7 220.4, 119.7 222.7, 121.1 223.5 C 122.6 224.3, 125.8 226.3, 128.3 227.9 C 130.7 229.6, 133.1 230.9, 133.6 230.9 C 135.6 230.9, 153.9 240.6, 153.9 241.7 C 153.9 242.3, 153.4 243.2, 152.7 243.7 C 150.9 244.8, 147.5 249.9, 146.0 254 C 145.2 255.9, 143.9 258.2, 143.0 259.0 C 142.2 259.9, 140.3 262.6, 139 264.9 C 137.6 267.2, 135.2 270.5, 133.7 272.3 C 132.2 274.0, 130.9 275.9, 130.9 276.4 C 130.1 288.6, 130.7 291.2, 135.1 295.1 C 137.5 297.1, 140.8 299.4, 142.5 300.1 C 144.1 300.8, 145.9 301.8, 146.5 302.4 C 147.1 303.0, 150.2 305.3, 153.4 307.5 C 156.6 309.7, 160.9 313.1, 162.9 315.2 C 164.9 317.3, 166.9 319, 167.5 319 C 171.0 319, 177.4 332.2, 176.7 338.0 C 176.0 342.9, 177.4 346.6, 180.2 347.5 C 182.9 348.4, 203.8 346.9, 204.5 345.8 C 204.8 345.4, 206.4 345, 208 345 C 209.5 345, 211.1 344.5, 211.4 344.0 C 211.7 343.5, 212.7 343.2, 213.6 343.4 C 215.6 343.7, 218.2 350.9, 216.9 352.5 C 216.4 353.1, 216.2 355.7, 216.5 358.4 C 216.7 361.1, 216.5 363.8, 215.9 364.5 C 214.7 366.0, 220.7 369.1, 225.9 369.6 C 227.9 369.8, 232.8 370.6, 237 371.5 C 247.0 373.7, 271.5 372.0, 277.4 368.7 C 278.5 368.0, 279.7 367.6, 280.1 367.7 C 283.8 368.7, 280.4 354.0, 275.7 348.9 C 273.9 347.0, 270.9 343.5, 269.1 341.2 C 267.1 338.8, 263.9 336.4, 261.4 335.5 C 259.1 334.6, 255.8 332.3, 254.1 330.4 C 252.3 328.5, 250.5 327, 250.1 327 C 249.7 327, 248.5 325.3, 247.5 323.2 C 246.6 321.2, 244.9 318.9, 243.9 318.2 C 242.8 317.4, 242 316.4, 242 315.9 C 242 314.8, 239.3 311.4, 236.6 309.1 C 234.2 306.9, 229 299.4, 229 298.0 C 229 297.4, 231.9 294.1, 235.5 290.8 C 239.0 287.4, 244.1 281.8, 246.7 278.3 C 249.2 274.8, 251.7 272, 252.1 272 C 252.5 272, 253.1 270.6, 253.4 269.0 C 253.8 267.3, 254.5 265.7, 255.1 265.4 C 255.6 265.0, 256.8 263.0, 257.6 260.8 C 259.4 256.4, 259.6 256.4, 268.5 259.0 C 275.4 261.0, 282.2 262.1, 289.8 262.5 C 293.8 262.7, 297.9 263.1, 298.8 263.5 C 299.7 263.9, 303.8 264.5, 307.9 264.8 C 315.4 265.5, 315.4 265.5, 316.1 268.8 C 316.4 270.7, 317.2 272.5, 317.7 272.8 C 321.2 275.1, 321.8 281, 318.5 281 C 317.2 281, 313.9 281.5, 311.1 282.1 C 306.6 283.1, 305.9 283.0, 303.2 281.1 C 301.5 279.9, 299.6 279, 299.0 279 C 298.4 279, 298 278.6, 298 278.1 C 298 276.7, 286.6 271.3, 284.5 271.7 C 280.3 272.5, 277.7 274.5, 275.2 278.9 C 273.7 281.4, 272.3 283.7, 271.9 284 C 270.9 284.7, 267.8 291, 268.5 291 C 268.8 291, 268.2 292.4, 267.3 294.2 C 264.5 299.3, 263.3 303.5, 263.6 306.0 C 263.8 307.3, 263.3 309.8, 262.4 311.7 C 261.1 314.3, 261.1 315.4, 262.0 316.5 C 262.7 317.4, 263.0 320.3, 262.8 324.4 C 262.4 330.8, 262.4 330.8, 266.0 332.9 C 270.3 335.3, 283.7 335.8, 288.7 333.8 C 295.6 331.0, 297.9 329.8, 298.5 328.9 C 299.3 327.6, 302.7 327.7, 303.6 329.1 C 304.0 329.8, 304.4 333.3, 304.5 336.9 C 305.0 351.9, 307.6 354.8, 319.2 353.5 C 326.2 352.7, 339.9 344.7, 343.9 339.0 C 345.1 337.4, 347.0 335.8, 348.2 335.4 C 350.9 334.7, 356.7 332.2, 359.2 330.9 C 360.2 330.4, 363.1 329.2, 365.7 328.3 C 375.7 325.0, 392.8 316.0, 394.9 313.0 C 396.1 311.3, 397.6 310, 398.3 310 C 401.1 310, 408.7 295.4, 407.6 292.4 C 407.3 291.7, 407.7 290.3, 408.4 289.3 C 409.1 288.3, 409.9 286.3, 410.2 285 C 410.5 283.6, 411.5 279.5, 412.4 276 C 413.3 272.4, 413.8 268.7, 413.6 267.7 C 413.3 266.7, 413.5 265.7, 414.0 265.4 C 415.0 264.8, 417.7 255.9, 420.3 244.8 C 420.7 243.1, 422.7 241.2, 426.5 238.8 C 434.7 233.9, 444.7 226.2, 446.4 223.7 C 447.2 222.4, 450.6 219.1, 453.8 216.2 L 459.8 210.9 466.6 214.4 C 470.4 216.2, 475.5 218.3, 478 218.9 C 480.4 219.6, 484.3 221.2, 486.6 222.5 C 488.9 223.9, 491.6 225, 492.7 225 C 493.7 225, 495.5 225.6, 496.7 226.5 C 497.9 227.3, 503.5 229.8, 509.2 231.9 C 514.8 234.0, 524.6 237.8, 530.9 240.4 C 537.2 242.9, 543.1 245, 544.1 245 C 545.0 245, 546.1 245.4, 546.5 246 C 547.3 247.3, 563.2 247.2, 566.6 245.8 C 571.4 243.8, 572.0 244.0, 574.5 248.0 C 579.0 255.1, 582.7 254.3, 593.0 244.0 C 599.4 237.6, 601.1 235.0, 602.9 229.5 C 603.6 227.3, 604.6 225.0, 605.1 224.5 C 605.6 224.0, 606.0 220.2, 606.0 216.0 C 606.0 204.4, 608.3 196.6, 613.0 192 C 618.7 186.3, 629.8 166.5, 633.9 155 C 635.1 151.4, 636.5 147.6, 637.0 146.5 C 641.6 135.6, 644.2 97.9, 641.1 84.8 C 639.4 77.2, 636.0 74.6, 632.4 78.0 C 631.1 79.2, 630.3 80.7, 630.6 81.2 C 630.9 81.7, 630.2 83.5, 629.0 85.1 C 627.8 86.7, 626.7 89.0, 626.6 90.2 C 626.2 93.2, 624.1 98.3, 622.8 99.0 C 622.3 99.4, 621.7 100.3, 621.6 101.1 C 621.0 104.1, 619.8 107, 619.0 107 C 618.5 107, 617.2 108.8, 616.0 111.2 C 614.7 113.5, 612.9 116.5, 611.9 117.8 C 610.8 119.1, 610 120.8, 610 121.5 C 610 122.2, 609.1 123.1, 608.1 123.4 C 607.1 123.7, 605.0 126.2, 603.6 128.9 C 601.2 133.3, 590.9 144, 589.1 144 C 588.7 144, 585.9 146.2, 582.9 148.9 C 575.4 155.8, 572.2 155.3, 576.0 148 C 578.5 143.2, 581.1 135.0, 580.4 133.9 C 580.2 133.5, 580.3 132.8, 580.8 132.5 C 581.9 131.9, 583.6 117.9, 583.1 113.5 C 582.0 103.3, 577.9 101.5, 571.8 108.4 C 567.7 113.0, 563.3 116.0, 554 120.5 C 548.5 123.1, 548.5 123.1, 543.2 120.4 C 534.4 115.9, 529.9 111.1, 525.6 101.8 C 523.4 97.2, 520.1 90.2, 518.2 86.2 C 514.4 78.1, 514.6 76.4, 519.2 73.4 C 521.0 72.3, 522.9 70.4, 523.5 69.2 C 524.2 67.9, 525.4 66.3, 526.2 65.7 C 535.2 58.7, 533.1 32.6, 523.2 26.7 C 520.3 25.0, 520.2 25.1, 517.1 28.3 C 515.4 30.1, 514 31.9, 514 32.2 C 514 33.3, 498.0 56.8, 495.3 59.7 C 492.3 63.0, 491.8 62.5, 493.2 57.3 C 494.3 53.1, 492.8 42.8, 490.8 40.5 C 490.3 40.0, 489.9 38.4, 489.9 37.0 C 489.8 29.6, 479.9 16, 474.7 16 C 472.6 16, 464.0 23.7, 464.0 25.6 C 464.0 26.2, 463.2 27.3, 462.3 28.1 C 460.1 29.9, 457.0 36.9, 457.6 38.5 C 457.9 39.2, 457.4 40.9, 456.5 42.3 C 454.6 45.1, 454.3 44.9, 444.3 35.4 C 441.4 32.6, 436.5 28.3, 433.3 25.9 C 430.1 23.4, 427.2 21.2, 427 20.9 C 422.8 16.4, 391.4 2.2, 388.3 3.4 C 387.4 3.7, 385.3 3.6, 383.5 3.1 C 380.7 2.2, 368.2 1.0, 367.7 1.6 M 359.6 7.2 C 359.0 7.6, 357.0 7.9, 355.3 7.9 C 353.5 7.9, 351.8 8.4, 351.5 9 C 351.1 9.5, 349.5 10, 347.9 10 C 343.1 10, 321.0 19.9, 316.4 24.1 C 315.3 25.1, 313.7 26, 313.0 26 C 312.3 26, 310.6 26.8, 309.1 27.8 C 306.0 30.1, 282.2 42, 280.8 42 C 280.3 42, 277.6 43.1, 274.7 44.5 C 271.8 45.9, 267.7 47.7, 265.5 48.5 C 263.3 49.2, 257 51.4, 251.5 53.4 C 240.5 57.4, 233.2 59.3, 231.8 58.4 C 231.3 58.0, 230.1 58.4, 229.3 59.1 C 228.0 60.2, 221.0 60.5, 196.5 60.5 C 165.8 60.6, 160.9 60.9, 157.0 62.9 C 156.0 63.5, 154.1 64, 153.0 64 C 150.4 64, 143.4 67.5, 136 72.4 C 130.7 75.9, 114 92.2, 114 93.8 C 114 94.2, 112.7 96.0, 111.2 97.7 C 109.7 99.4, 106.7 105.1, 104.5 110.5 C 102.3 115.8, 100.1 120.3, 99.7 120.6 C 99.3 120.9, 99 122.6, 99 124.5 C 99 126.4, 98.6 128.0, 98.2 128.0 C 97.8 128.0, 97.4 130.5, 97.3 133.7 C 97.2 139.6, 94.5 150.5, 93.0 151.4 C 92.5 151.7, 92.2 159.1, 92.4 167.7 C 92.7 185.5, 95.4 192.7, 106.4 204.7 C 115.7 214.9, 142.5 230.9, 157.3 235.1 C 163.6 236.8, 166.5 241, 161.5 241 C 160.7 241, 158.1 244.7, 155.6 249.2 C 148.9 261.2, 146.2 265.3, 137.4 275.6 C 133.2 280.5, 133.2 281.1, 136.6 287.6 C 138.8 291.9, 140.3 293.2, 146.0 296.3 C 149.7 298.4, 155.0 301.9, 157.6 304.2 C 160.3 306.6, 164.5 310.1, 167 312.1 C 176.9 320.3, 179.2 322.8, 179.2 325.7 C 179.2 327.2, 179.6 329.0, 180.2 329.7 C 180.7 330.3, 181.0 333.3, 180.8 336.2 L 180.5 341.5 192.5 341.2 C 200.0 341.0, 205.6 340.4, 207.5 339.5 C 209.1 338.7, 211.2 337.8, 212.2 337.5 C 216.8 336.2, 211.4 326.0, 204.7 323.1 C 200.9 321.5, 197.5 325.1, 196.5 331.5 C 195.9 335.2, 195.5 335.9, 194.5 335.0 C 191.4 332.4, 196.1 320.9, 200.8 319.7 C 203.1 319.1, 209 321.4, 209 323.0 C 209 323.6, 209.4 323.8, 209.9 323.5 C 210.4 323.2, 211.1 323.4, 211.4 323.9 C 211.8 324.5, 212.9 325, 213.9 325 C 215.0 325, 216.1 325.9, 216.5 327.2 C 218.8 335.6, 220.4 336.5, 227.1 333.1 C 235.8 328.7, 236.4 327.8, 233.9 323.4 C 230.9 318.0, 230.4 317.4, 225.2 314.0 C 219.8 310.4, 218.3 310.2, 217.5 313 C 216.8 315.0, 214 315.8, 214 313.9 C 214 313.3, 214.7 311.8, 215.6 310.4 C 217.4 307.7, 217.0 306.7, 213.8 306.3 C 211.5 305.9, 200.7 301.1, 200 300.1 C 199.4 299.4, 191.3 294.0, 184.8 290.1 C 182.8 288.9, 180.9 287.2, 180.5 286.3 C 180.0 285.0, 178.8 284.8, 173.9 285.1 C 166.1 285.7, 166.1 284.3, 174.3 279.1 C 193.7 266.9, 207.8 249.2, 214.4 229 C 215.4 225.9, 216.8 221.8, 217.6 219.7 C 219.2 215.3, 219.3 207.9, 218.0 203 C 217.5 201.0, 216.8 198.3, 216.5 197 C 214.7 188.4, 213.9 185.7, 211.5 179 C 206.9 166.4, 196.7 147.7, 189.7 138.6 C 186.2 134.2, 187.2 131.1, 191.0 134.5 C 202.2 144.6, 220.6 182.4, 221.3 196.7 C 221.5 199.0, 221.9 201.2, 222.2 201.6 C 223.3 202.6, 223.1 221, 222.1 221 C 221.6 221, 221.2 222.5, 221.2 224.3 C 221.2 226.2, 220.4 229.1, 219.6 230.8 C 217.3 235.2, 217.4 235.4, 223.2 237.9 C 226.1 239.1, 230.0 240.9, 232 241.7 C 243.2 246.6, 271.4 254.8, 281 255.9 C 284.5 256.3, 292.6 257.4, 298.8 258.4 C 312.0 260.3, 313.1 260.0, 310.7 254.2 C 309.8 252.2, 308.1 247.8, 306.9 244.7 C 305.1 240.0, 304.0 238.5, 301.1 237.0 C 295.0 233.9, 293.6 231.6, 293.1 224.1 C 292.7 218.0, 292.4 217.1, 288.9 213.3 C 278.9 202.4, 280.0 187.7, 292.8 161 C 297.7 150.8, 302.7 137.6, 304.6 130.2 C 304.7 129.5, 305.5 129, 306.3 129 C 307.6 129, 307.8 137.8, 306.4 140.0 C 306.1 140.5, 305.7 141.7, 305.5 142.7 C 305.3 143.7, 302.0 151.2, 298.1 159.5 C 291.2 174.3, 287 185.6, 287 189.1 C 287 190.1, 286.5 191, 286 191 C 284.7 191, 284.6 197.4, 285.8 199.7 C 286.3 200.7, 287.5 203.3, 288.4 205.5 C 291.9 214.0, 293.1 214.7, 297.6 210.7 C 303.1 205.8, 310.9 201.5, 312.1 202.7 C 313.0 203.6, 307.2 209, 305.2 209 C 302.0 209, 297 217.5, 297 223.0 C 297 229.7, 301.1 235.4, 302.5 230.7 C 305.7 220.2, 336.9 210.8, 354.7 215.1 C 367.3 218.1, 373.3 221.8, 374.8 227.5 C 375.9 231.4, 377.2 231.5, 381.3 227.9 C 387.3 222.7, 387.0 216.5, 380.3 206.7 C 377.1 202.0, 377.8 200.8, 381.9 204.2 C 383.5 205.6, 385.4 206.9, 385.9 207.1 C 387.4 207.6, 389.9 214.7, 389.9 218.7 C 390.0 225.3, 382.9 235, 378.0 235 C 375.6 235, 375.0 237.6, 375.0 247.2 C 375 255.0, 375 255.0, 377.7 254.4 C 387.9 252.0, 416.3 240.1, 421.5 236.0 C 425.1 233.1, 429.9 230, 430.5 230 C 430.9 230, 433.1 228.4, 435.3 226.5 C 445.8 217.7, 445.8 217.6, 439.6 214.9 C 432.6 211.8, 423 199.8, 423 194.2 C 423 193.2, 422.1 190.6, 421.1 188.4 C 418.5 182.9, 417.5 176, 419.3 176 C 420.2 176, 421.3 178.5, 422.3 182.7 C 426.0 197.7, 432.6 207.2, 442.4 211.8 C 447.2 214.1, 447.2 214.1, 451.1 211.5 C 455.9 208.3, 456.8 206.4, 454.3 204.2 C 444.5 195.3, 439.0 179.7, 439.0 160.7 C 439.0 151.8, 439.2 150, 440.5 150 C 441.6 150, 442 151.3, 442 155.8 C 442 175.3, 450.0 197.4, 459.6 204.2 C 464.1 207.4, 474.9 212.7, 483.5 215.9 C 492.0 219.1, 496.9 221.1, 509.7 226.4 C 525.2 232.8, 540.4 238.4, 549.6 241.0 C 554.3 242.3, 568.1 241.2, 568.7 239.4 C 569.4 237.1, 548.9 225.6, 541.6 224.3 C 536.0 223.2, 533.8 220, 538.6 220 C 547.6 220, 574 232.6, 574 236.9 C 574 238.2, 580.4 246, 581.4 246 C 585.8 246, 599.9 229.1, 600.0 223.7 C 600.2 210.3, 600.8 204.8, 602.3 202.5 C 604.2 199.6, 605.3 200.4, 593.4 195.5 C 582.5 191.0, 573.1 177.1, 572.5 164.8 L 572.2 156.5 566.3 156.3 C 552.8 156.1, 542.1 145.1, 543.2 132.8 C 543.7 127.2, 543.6 126.8, 541.4 125.7 C 540.0 125.1, 539 124.3, 539 123.9 C 539 123.5, 536.5 121.5, 533.5 119.5 C 525.7 114.4, 522.4 109.5, 516.0 94.0 C 512.1 84.5, 506.6 76.5, 503.0 75.0 C 501.3 74.3, 500 73.4, 500 72.9 C 500 72.0, 497.7 71.0, 493.2 69.9 C 490.2 69.2, 490 69.3, 490 71.7 C 490 75.0, 482.2 89, 480.4 89 C 478.5 89, 478.6 88.1, 481.1 82.9 C 489.6 65.4, 489.7 45.0, 481.5 30.1 C 476.1 20.3, 474.5 19.9, 469.2 27.1 C 457.5 42.8, 456.5 60.4, 466.1 80.7 C 471.3 91.8, 471.1 93.7, 465.4 87.7 C 463.0 85.0, 461 82.6, 461 82.3 C 461 81.9, 459.8 79.3, 458.4 76.4 C 455.7 70.9, 455.2 68.7, 455.1 59.9 C 455.0 55.5, 454.4 53.9, 452.5 51.7 C 451.1 50.3, 450 48.6, 450 48.1 C 450 45.9, 430.1 28.5, 421.6 23.3 C 402.4 11.4, 389.9 7.4, 370.1 6.8 C 365.0 6.6, 360.2 6.8, 359.6 7.2 M 511.7 46.2 C 506.4 54.2, 501.6 61.0, 501.0 61.4 C 497.6 63.5, 505.0 73, 510.0 73 C 517.8 73, 529.0 53.6, 526.5 44.2 C 525.8 41.6, 525.4 39.0, 525.6 38.5 C 525.8 37.9, 524.9 36.1, 523.6 34.5 C 521.3 31.6, 521.3 31.6, 511.7 46.2 M 477.4 38.1 C 480.5 48.4, 480.8 58.7, 478.3 69.1 C 476.4 76.8, 477.7 81.2, 480.1 75.4 C 484.0 65.7, 484.7 51.1, 481.7 43.0 C 479.4 36.9, 475.7 32.6, 477.4 38.1 M 8.6 63.6 C 8.3 64.1, 10.3 66.5, 13.0 68.8 C 18 73.1, 18 73.1, 18 83.5 C 18 92.8, 18.2 94.1, 20.2 96.4 C 23.5 100.1, 27.4 100.3, 27.8 96.7 C 28.2 93.3, 30 93.1, 30 96.5 C 30 102.2, 35.7 97.4, 38.2 89.6 C 41.1 80.5, 37.1 72.3, 26.5 65.4 C 24.0 63.8, 9.4 62.4, 8.6 63.6 M 466.9 67.2 C 469.2 76.8, 474.7 85.2, 476.9 82.5 C 478.3 80.8, 477.5 79, 475.5 79 C 473.9 79, 471.8 75.2, 469.9 68.6 C 468.3 63.2, 465.7 62.0, 466.9 67.2 M 20 69.5 C 20 69.9, 21.5 72.5, 23.4 75.4 C 25.3 78.2, 27.3 82.4, 27.8 84.5 C 28.6 88.5, 28.6 88.5, 30.0 85.7 C 31.1 83.3, 31.0 82.7, 29.6 81.1 C 28.7 80.1, 28 78.5, 28 77.6 C 28 76.7, 26.5 74.3, 24.8 72.4 C 21.9 69.2, 20 68.1, 20 69.5 M 630.3 94.7 C 621.0 118.4, 603.6 140.5, 582.8 155.2 C 575.1 160.6, 574.8 161.2, 576.2 167.0 C 579.1 179.4, 584.6 186.8, 594.7 191.9 C 602.1 195.7, 603.6 195.4, 607.8 189.5 C 609.6 187.0, 611.6 184.4, 612.3 183.7 C 612.9 183.0, 614.3 181.1, 615.4 179.5 C 616.4 177.8, 617.9 176.1, 618.6 175.7 C 619.3 175.2, 620 174.1, 620 173.2 C 620 172.4, 621.1 169.8, 622.4 167.5 C 632.1 151.0, 637.7 126.8, 637.5 103 C 637.4 81.3, 636.1 79.9, 630.3 94.7 M 92 109.0 C 79.4 121.7, 72.3 126.7, 61.8 130.4 C 48.5 135.0, 30 122.4, 30 108.8 C 30 107.8, 29.0 106.5, 27.9 105.9 C 25.2 104.5, 24.5 106.5, 25.4 114.2 C 26.7 125.6, 32.3 133.2, 43.0 137.8 C 46.0 139.1, 49.4 140.7, 50.6 141.2 C 55.9 143.6, 66.9 141.6, 78.4 136.1 C 92.0 129.6, 92.4 129.3, 95.0 120.6 C 96.3 116.7, 98.8 110.3, 100.6 106.5 C 105.5 96.5, 103.8 96.9, 92 109.0 M 572.3 114.1 C 566.2 119.8, 562.0 122.7, 554.5 126.5 C 547.5 130.1, 545.4 135.6, 548.6 141.9 C 551.5 147.7, 561.8 154.5, 565.7 153.2 C 567.3 152.7, 573.4 143.9, 573.6 142 C 573.6 141.1, 574.7 137.5, 575.9 134 C 578.4 126.3, 579.7 114.1, 578.2 111.4 C 577.3 109.8, 576.7 110.1, 572.3 114.1 M 397.3 149.1 C 398.8 160.7, 399.2 175.0, 398.0 179.6 C 397.3 182.3, 396.6 186.0, 396.4 187.9 C 396.3 189.8, 394.3 194.9, 392.1 199.2 C 389.6 204.1, 388.5 207.2, 389.2 207.6 C 391.4 208.9, 400.0 194.3, 399.2 190.7 C 399.0 189.7, 399.2 189, 399.8 189 C 401.9 189, 403.2 160.9, 401.1 160.2 C 400.7 160.0, 400.5 158.3, 400.8 156.3 C 401.0 154.3, 400.8 152.9, 400.3 153.2 C 399.8 153.5, 399.5 151.9, 399.5 149.7 C 399.5 147.2, 398.9 145.5, 398.1 145.2 C 397.0 144.8, 396.8 145.6, 397.3 149.1 M 506.8 150.2 C 503.9 152.5, 504.1 154.5, 507.5 159.2 C 513.6 167.6, 516.0 168.1, 526 163.0 C 528.1 161.8, 527.3 158.9, 523.6 155.1 C 518.1 149.3, 510.6 147.1, 506.8 150.2 M 578.2 199.2 C 579.0 201.5, 593.2 209.2, 594.1 207.7 C 595.1 206.2, 593.5 204.9, 585.7 200.9 C 579.4 197.7, 577.6 197.3, 578.2 199.2 M 569.5 209.9 C 567.6 212.0, 568.1 214, 570.5 214 C 573.2 214, 577.0 217.1, 579.6 221.6 C 582.7 227.0, 583.5 227.0, 585.1 221.9 C 586.3 218.0, 586.2 217.8, 582.9 214.3 C 576.8 208.1, 572.5 206.6, 569.5 209.9 M 336.0 219.0 C 336 219.3, 332.9 220.1, 329.2 220.6 C 321.5 221.8, 309.2 227.0, 308.3 229.5 C 307.9 230.4, 308.7 234.3, 309.9 238.1 C 311.2 242.0, 312.3 245.9, 312.3 246.8 C 312.4 247.7, 313.2 249.6, 314.1 251 C 315.1 252.3, 316.6 255.7, 317.5 258.5 C 318.4 261.2, 321.1 267.3, 323.5 272.1 C 325.9 276.8, 327.6 281.0, 327.2 281.3 C 326.9 281.7, 327.3 282.7, 328.2 283.7 C 329.1 284.7, 330.1 286.7, 330.5 288.2 C 331.5 292.3, 328.6 291.8, 326 287.5 C 323.8 284.0, 322 282.9, 322 285.0 C 322 285.7, 320.8 285.9, 319 285.5 C 317.1 285.0, 316 285.2, 316 285.9 C 316 287.2, 305.7 287.3, 303.2 286.1 C 302.2 285.6, 297.6 283.3, 292.8 280.9 C 283.1 275.9, 282.5 276.1, 278.3 285.3 C 276.5 289.2, 276.5 289.2, 279.0 290.8 C 290.4 298.0, 292.9 308.0, 284.2 311.6 C 282.2 312.5, 280.1 313.8, 279.5 314.5 C 278.7 315.6, 277.5 315.7, 274.5 314.9 C 269.1 313.7, 267 316.0, 267 323.0 C 267 330.7, 276.2 332.8, 287.2 327.7 C 303.3 320.2, 311.6 317.7, 318.5 318.1 C 319.6 318.2, 322.3 317.9, 324.5 317.5 C 326.7 317.1, 329.8 316.6, 331.5 316.5 C 346.0 315.4, 360.2 308.8, 363.7 301.7 C 368.5 292.0, 369.2 286.4, 369.3 255.0 L 369.5 225.5 365.2 222.7 C 362.9 221.1, 359.3 219.7, 357.2 219.5 C 355.1 219.3, 353.2 219.1, 353 219.0 C 351.7 218.5, 336.0 218.5, 336.0 219.0 M 216 241.3 C 216 242.0, 214.8 243.9, 213.5 245.4 C 212.1 246.8, 211 248.6, 211 249.2 C 211 250.6, 203.3 262.4, 201.4 264.0 C 200.5 264.7, 200.2 266.2, 200.6 268.0 C 201.0 269.8, 200.8 271, 200.1 271 C 199.6 271, 199.1 272.2, 199.2 273.7 C 199.2 275.2, 198.5 278.6, 197.6 281.2 C 195.1 288.5, 196.3 294, 200.4 294 C 200.8 294, 202.4 294.8, 203.9 295.9 C 205.4 297.0, 210.1 299.4, 214.4 301.3 C 227.1 306.9, 243.7 324.8, 241.2 330.3 C 240.2 332.4, 233.8 336.1, 223.8 340.3 C 220.3 341.8, 219.3 345.8, 222.1 347.5 C 223.3 348.3, 223.2 355, 222 355 C 220.7 355, 220.6 359.9, 221.8 361.8 C 222.3 362.5, 225.7 363.9, 229.3 364.9 C 236.9 366.9, 237.1 366.8, 238.9 360 C 241.2 351.2, 248.9 347.0, 253.5 352 C 254.4 353.1, 256.0 354, 256.9 354 C 259.2 354, 261 356.0, 261 358.7 C 261 364.5, 264.3 367.9, 268.1 365.9 C 269.2 365.3, 271.4 364.8, 273.0 364.7 C 274.7 364.7, 276.2 364.3, 276.4 364.0 C 277.0 363.1, 274.1 354.8, 272.5 353 C 271.8 352.1, 271.0 350.7, 270.7 349.7 C 270.3 348.8, 268.2 347.1, 266 346 C 263.7 344.8, 261.6 343.2, 261.3 342.4 C 261.0 341.5, 258.5 339.8, 255.9 338.4 C 253.2 337.1, 249.9 334.5, 248.5 332.7 C 247.2 330.9, 242.0 324.1, 237.0 317.5 C 232.1 310.9, 226.7 303.9, 225.0 302 C 221.2 297.6, 221.0 298.5, 227.5 291.5 C 240.0 278.0, 253 260.4, 253 256.9 C 253 255.2, 246.2 250.4, 245.2 251.3 C 244.3 252.3, 219.6 242.8, 218.5 241.1 C 217.6 239.5, 216 239.7, 216 241.3 M 408.5 248.4 C 406.3 249.8, 403.4 250.9, 402.2 250.9 C 401.0 250.9, 400 251.3, 400 251.8 C 400 252.3, 399.2 253.0, 398.2 253.3 C 397.2 253.5, 393.5 254.9, 390 256.2 C 386.4 257.6, 381.8 259.0, 379.7 259.3 C 374.7 260.3, 373.5 262.8, 373.8 271.7 C 374.0 276.6, 373.8 279, 373.0 279 C 372.2 279, 372.1 280.5, 372.5 284 C 372.9 286.7, 372.8 289, 372.3 289.0 C 371.8 289.0, 371.4 291.1, 371.4 293.8 C 371.2 307.6, 357.0 318.4, 335 321.4 C 329.2 322.2, 319.0 330.3, 322.5 331.4 C 323.6 331.8, 326.9 333.3, 329.8 334.7 C 336.0 337.9, 337.4 337.8, 341.5 334.0 C 344.0 331.6, 357.3 325, 359.5 325 C 360.7 325, 385.5 312.8, 389.6 310.1 C 397.0 305.3, 402.3 294.8, 406.1 277.5 C 406.7 274.7, 408.7 266.9, 410.6 260.0 C 415.0 243.7, 415.1 244.3, 408.5 248.4 M 186.7 276.3 C 182.3 280.3, 182.2 280.9, 185.4 283.9 C 188.2 286.5, 191.9 284.8, 192.0 281.0 C 192.0 280.2, 192.6 278.2, 193.5 276.6 C 195.4 272.9, 195.4 272.9, 192.7 273.0 C 191.5 273.0, 188.8 274.5, 186.7 276.3 M 272.7 296.2 C 267.3 304.6, 269.3 311.6, 276.9 310.5 C 285.6 309.2, 288.0 305.5, 284.0 299.5 C 280.4 294.0, 275.1 292.5, 272.7 296.2 M 317.2 323.0 C 309.0 324.1, 307.6 325.2, 309.8 328.7 C 310.8 330.3, 319.2 327.9, 322.8 325.1 C 325.9 322.7, 324.2 322.1, 317.2 323.0 M 312.0 332.8 C 309.3 333.6, 307.2 339.6, 309.0 341.4 C 309.5 341.9, 310 343.1, 310 344.0 C 310 349.6, 320.0 349.4, 328.7 343.6 C 333.3 340.5, 332.9 339.8, 324.1 335.6 C 315.8 331.7, 315.8 331.8, 312.0 332.8 M 244.7 354.7 C 238.3 362.1, 240.5 368.2, 249.7 367.7 C 257.5 367.4, 259.0 366.0, 257.0 361.1 C 254.0 353.9, 248.1 350.8, 244.7 354.7" fill="#050302" fill-rule="evenodd"/>
  </g>
</svg>
