<svg xmlns="http://www.w3.org/2000/svg" viewBox="0 0 60 90" width="60" height="90">
  <!-- FURIOUS RHINO v1.4.0 - proposta "cartoon rico" (em avaliacao, nao usada pelo jogo).
       Girafa chibi (ver animal-giraffe.svg): identica ao frame base, pernas rotacionadas
       nos mesmos pivos do sprite atual. -->
  <defs>
    <linearGradient id="gb2" x1="0" y1="0" x2="0" y2="1">
      <stop offset="0" stop-color="#f9edc2"/>
      <stop offset="1" stop-color="#eed9a0"/>
    </linearGradient>
  </defs>
  <!-- cauda erguida com tufo em gota -->
  <path d="M13.5 52 Q7 48 6 40.5" fill="none" stroke="#17171b" stroke-width="2.6" stroke-linecap="round"/>
  <path d="M6 40.5 Q2 35.5 5.5 31 Q10 32.5 8 38.5 Q7.2 40.3 6 40.5 Z" fill="#8a5a2b" stroke="#17171b" stroke-width="1.8" stroke-linejoin="round"/>
  <!-- pernas em passada (cascos cinza) -->
  <g transform="rotate(-12 19 66)">
    <rect x="16" y="66" width="6" height="23" rx="2" fill="#f5e6b0" stroke="#17171b" stroke-width="2.2"/>
    <rect x="16.6" y="84" width="4.8" height="4.6" rx="1.4" fill="#9a9aa0"/>
  </g>
  <g transform="rotate(14 30 67)">
    <rect x="27" y="67" width="6" height="22" rx="2" fill="#e9d491" stroke="#17171b" stroke-width="2.2"/>
    <rect x="27.6" y="84" width="4.8" height="4.6" rx="1.4" fill="#8c8c92"/>
  </g>
  <g transform="rotate(-14 41 66)">
    <rect x="38" y="66" width="6" height="23" rx="2" fill="#f5e6b0" stroke="#17171b" stroke-width="2.2"/>
    <rect x="38.6" y="84" width="4.8" height="4.6" rx="1.4" fill="#9a9aa0"/>
  </g>
  <!-- crina serrilhada (atras do pescoco) -->
  <path d="M36 15 Q31 15.5 32 19 Q28.5 20.5 30 24 Q26.5 26 28.5 29.5 Q25.5 31.5 27.5 35 Q25 37.5 27 41 Q24.5 43.5 26.8 47 Q25 49.5 27 52.5 L33 52.5 L38 17 Z" fill="#8a5a2b" stroke="#17171b" stroke-width="2" stroke-linejoin="round"/>
  <!-- pescoco grosso -->
  <path d="M30.5 53 Q33 32 35.5 17 L46 19 Q42.5 36 42.5 53 Z" fill="url(#gb2)" stroke="#17171b" stroke-width="2.6" stroke-linejoin="round"/>
  <path d="M32.5 22 q4.5 -2 5.5 1.5 q0.5 4 -3.5 4.5 q-3.5 0 -3.5 -3 q0 -2 1.5 -3 Z" fill="#c8862f"/>
  <path d="M31 36 q5 -2.5 6.5 1.5 q1 4.5 -3.5 5.5 q-4.5 0.5 -5 -3 q-0.3 -2.5 2 -4 Z" fill="#c8862f"/>
  <!-- corpo -->
  <ellipse cx="29" cy="59" rx="18.5" ry="13.5" fill="url(#gb2)" stroke="#17171b" stroke-width="2.6"/>
  <path d="M13.5 52 q6 -5 10 0 q2 5.5 -3 8.5 q-6 2.5 -8.5 -2 q-1.5 -3.5 1.5 -6.5 Z" fill="#c8862f"/>
  <path d="M28 48.5 q6.5 -3 9.5 1.5 q2 5 -3.5 7 q-6.5 1.5 -8 -3 q-1 -3.5 2 -5.5 Z" fill="#c8862f"/>
  <path d="M40 56 q5.5 -2 7 2.5 q1 4.5 -3.5 6 q-5 1 -6 -3 q-0.7 -3.3 2.5 -5.5 Z" fill="#c8862f"/>
  <path d="M20 63 q5 -2.5 7 1 q1.5 4 -2.5 5.8 q-5 1.5 -6.5 -2 q-1 -3 2 -4.8 Z" fill="#c8862f"/>
  <!-- orelhas + ossicones -->
  <path d="M31.5 9 Q25.8 3 23.8 7.6 Q27.2 10 31 11.5 Z" fill="#f5e6b0" stroke="#17171b" stroke-width="2" stroke-linejoin="round"/>
  <path d="M30.2 9.4 Q27 6 26 8.4 Q28.2 9.7 30 10.6 Z" fill="#e6cd96"/>
  <path d="M47.8 8 Q52.6 1.4 55.4 5.6 Q52.2 8.8 48.2 9.8 Z" fill="#f5e6b0" stroke="#17171b" stroke-width="2" stroke-linejoin="round"/>
  <path d="M49.4 8.4 Q52.4 4.4 53.8 6.4 Q51.6 8.1 49.6 9.1 Z" fill="#e6cd96"/>
  <path d="M37.5 5.5 L37 3" stroke="#17171b" stroke-width="1.8" stroke-linecap="round"/>
  <path d="M43.5 5 L43.8 2.6" stroke="#17171b" stroke-width="1.8" stroke-linecap="round"/>
  <circle cx="36.8" cy="2.8" r="1.7" fill="#7a4c2a" stroke="#17171b" stroke-width="1.2"/>
  <circle cx="44" cy="2.4" r="1.7" fill="#7a4c2a" stroke="#17171b" stroke-width="1.2"/>
  <!-- cabeca -->
  <ellipse cx="40.5" cy="12.5" rx="10.5" ry="9" fill="url(#gb2)" stroke="#17171b" stroke-width="2.6"/>
  <path d="M32.5 6.5 q3.5 -1.8 4.5 1 q0.8 3 -2.5 3.6 q-3 0.4 -3.5 -2 q-0.3 -1.6 1.5 -2.6 Z" fill="#c8862f"/>
  <!-- olhos de bolinha -->
  <circle cx="36.2" cy="11.6" r="2" fill="#17171b"/>
  <circle cx="43.8" cy="10.6" r="2" fill="#17171b"/>
  <circle cx="35.6" cy="11" r="0.65" fill="#ffffff"/>
  <circle cx="43.2" cy="10" r="0.65" fill="#ffffff"/>
  <!-- focinho rosa -->
  <ellipse cx="48.8" cy="17" rx="6.4" ry="5" fill="#f2c9c2" stroke="#17171b" stroke-width="2.2"/>
  <circle cx="47" cy="16" r="1" fill="#8a5a2b"/>
  <circle cx="50.8" cy="16.6" r="1" fill="#8a5a2b"/>
  <path d="M46 19.8 Q49 21.6 51.8 20" fill="none" stroke="#17171b" stroke-width="1.3" stroke-linecap="round"/>
</svg>
